<svg xmlns="http://www.w3.org/2000/svg" width="512" height="512" enable-background="new 0 0 512 512" viewBox="0 0 512 512" id="gear"><path d="M291.707,493.641H221.23c-3.978,0-7.202-3.224-7.202-7.201v-56.693c-17.627-4.316-34.42-11.281-50.066-20.766
				l-40.084,40.141c-1.35,1.352-3.182,2.112-5.093,2.112c-0.001,0-0.002,0-0.002,0c-1.911,0-3.742-0.759-5.093-2.109l-49.848-49.849
				c-2.811-2.811-2.813-7.368-0.003-10.181l40.089-40.136c-9.502-15.635-16.452-32.413-20.719-50.022H26.47
				c-3.977,0-7.202-3.224-7.202-7.201v-70.478c0-3.978,3.225-7.201,7.202-7.201h56.739c4.282-17.686,11.248-34.485,20.765-50.083
				l-40.132-40.132c-1.351-1.351-2.109-3.183-2.109-5.093s0.759-3.742,2.109-5.093l49.848-49.844
				c1.351-1.35,3.183-2.108,5.092-2.108c0.001,0,0.001,0,0.003,0c1.911,0,3.743,0.761,5.093,2.112l40.084,40.141
				c15.646-9.484,32.439-16.449,50.066-20.766V26.498c0-3.978,3.224-7.201,7.202-7.201h70.477c3.979,0,7.202,3.224,7.202,7.201
				v56.693c17.645,4.32,34.422,11.285,50.013,20.762l40.142-40.141c2.811-2.811,7.371-2.813,10.184,0l49.849,49.844
				c1.351,1.351,2.109,3.183,2.109,5.093s-0.759,3.742-2.108,5.093l-40.134,40.133c9.454,15.508,16.415,32.307,20.752,50.082h56.753
				c3.978,0,7.201,3.224,7.201,7.201v70.478c0,3.978-3.224,7.201-7.201,7.201h-56.753c-4.33,17.73-11.291,34.512-20.751,50.026
				l40.132,40.128c1.351,1.351,2.109,3.183,2.109,5.093s-0.758,3.741-2.108,5.093l-49.849,49.849
				c-1.351,1.35-3.183,2.108-5.093,2.108c-0.001,0-0.002,0-0.003,0c-1.91,0-3.742-0.761-5.093-2.112l-40.085-40.141
				c-15.646,9.484-32.438,16.449-50.065,20.766v56.693C298.909,490.417,295.686,493.641,291.707,493.641z M228.432,479.238h56.074
				V424c0-3.406,2.387-6.347,5.719-7.047c19.867-4.18,38.661-11.973,55.858-23.163c2.854-1.856,6.617-1.462,9.023,0.947
				l39.053,39.106l39.66-39.66l-39.113-39.108c-2.414-2.413-2.802-6.189-0.93-9.043c11.153-17,18.938-35.766,23.142-55.777
				c0.7-3.334,3.641-5.721,7.048-5.721h55.301v-56.075h-55.301c-3.407,0-6.348-2.387-7.048-5.721
				c-4.215-20.067-12.001-38.853-23.142-55.833c-1.872-2.854-1.484-6.629,0.929-9.043l39.114-39.113L394.155,79.09l-39.115,39.114
				c-2.41,2.41-6.179,2.799-9.029,0.938c-17.12-11.181-35.89-18.972-55.786-23.157c-3.332-0.7-5.719-3.641-5.719-7.047V33.699
				h-56.074v55.238c0,3.406-2.386,6.347-5.719,7.048c-19.868,4.179-38.661,11.972-55.858,23.162
				c-2.854,1.857-6.618,1.463-9.023-0.947l-39.053-39.107L79.12,118.749l39.113,39.113c2.413,2.414,2.801,6.189,0.929,9.043
				c-11.225,17.108-19.009,35.887-23.138,55.813c-0.692,3.344-3.638,5.74-7.052,5.74h-55.3v56.075h55.3
				c3.414,0,6.359,2.396,7.052,5.74c4.109,19.831,11.878,38.596,23.091,55.771c1.861,2.851,1.471,6.616-0.935,9.025l-39.063,39.109
				l39.663,39.663l39.052-39.106c2.406-2.409,6.17-2.804,9.023-0.947c17.197,11.19,35.99,18.983,55.858,23.162
				c3.333,0.701,5.719,3.642,5.719,7.048V479.238z"></path><path d="M256.441,359.162c-56.625,0-102.693-46.067-102.693-102.693s46.068-102.693,102.693-102.693
				c56.657,0,102.75,46.067,102.75,102.693S313.098,359.162,256.441,359.162z M256.441,168.178c-48.683,0-88.29,39.607-88.29,88.291
				s39.607,88.291,88.29,88.291c48.715,0,88.348-39.607,88.348-88.291S305.156,168.178,256.441,168.178z"></path></svg>