<svg id="visual" viewBox="0 0 1500 1000" width="1500" height="1000" xmlns="http://www.w3.org/2000/svg" xmlns:xlink="http://www.w3.org/1999/xlink" version="1.1"><rect x="0" y="0" width="1500" height="1000" fill="#001829"></rect><g fill="#fff"><path d="M0 -185.9L41.7 -57.5L176.8 -57.5L67.5 21.9L109.3 150.4L0 71L-109.3 150.4L-67.5 21.9L-176.8 -57.5L-41.7 -57.5Z" transform="translate(546 931)"></path><path d="M0 -69.8L15.7 -21.6L66.4 -21.6L25.4 8.2L41.1 56.5L0 26.7L-41.1 56.5L-25.4 8.2L-66.4 -21.6L-15.7 -21.6Z" transform="translate(1371 140)"></path><path d="M0 -74.6L16.7 -23L70.9 -23L27.1 8.8L43.8 60.3L0 28.5L-43.8 60.3L-27.1 8.8L-70.9 -23L-16.7 -23Z" transform="translate(838 98)"></path><path d="M0 -79.3L17.8 -24.5L75.4 -24.5L28.8 9.4L46.6 64.1L0 30.3L-46.6 64.1L-28.8 9.4L-75.4 -24.5L-17.8 -24.5Z" transform="translate(1174 694)"></path></g></svg>