<svg xmlns="http://www.w3.org/2000/svg" version="1.1" xmlns:xlink="http://www.w3.org/1999/xlink" xmlns:svgjs="http://svgjs.com/svgjs" width="1920" height="1000" preserveAspectRatio="none" viewBox="0 0 1920 1000"><g mask="url(&quot;#SvgjsMask1021&quot;)" fill="none"><rect width="1920" height="1000" x="0" y="0" fill="rgba(225, 229, 232, 1)"></rect><path d="M -1159.4503610407248,525 C -1031.45,516.6 -775.45,448.2 -519.4503610407248,483 C -263.45,517.8 -135.45,729 120.54963895927517,699 C 376.55,669 504.55,348.8 760.5496389592752,333 C 1016.55,317.2 1168.66,595.4 1400.5496389592752,620 C 1632.44,644.6 1816.11,488.8 1920,456" stroke="rgba(51, 121, 194, 0.58)" stroke-width="2"></path><path d="M -890.027355905695,487 C -762.03,504.6 -506.03,609 -250.027355905695,575 C 5.97,541 133.97,306.6 389.972644094305,317 C 645.97,327.4 773.97,604.8 1029.972644094305,627 C 1285.97,649.2 1491.97,447.4 1669.972644094305,428 C 1847.98,408.6 1869.99,509.6 1920,530" stroke="rgba(51, 121, 194, 0.58)" stroke-width="2"></path><path d="M -1114.2746199650528,382 C -986.27,426.6 -730.27,604.6 -474.2746199650527,605 C -218.27,605.4 -90.27,378.8 165.7253800349473,384 C 421.73,389.2 549.73,643.6 805.7253800349473,631 C 1061.73,618.4 1222.87,312.8 1445.7253800349472,321 C 1668.58,329.2 1825.15,601.8 1920,672" stroke="rgba(51, 121, 194, 0.58)" stroke-width="2"></path><path d="M -935.3417660563863,487 C -807.34,521.2 -551.34,687.2 -295.3417660563863,658 C -39.34,628.8 88.66,334 344.6582339436137,341 C 600.66,348 728.66,693.6 984.6582339436137,693 C 1240.66,692.4 1437.59,340.8 1624.6582339436136,338 C 1811.73,335.2 1860.93,610.8 1920,679" stroke="rgba(51, 121, 194, 0.58)" stroke-width="2"></path></g><defs><mask id="SvgjsMask1021"><rect width="1920" height="1000" fill="#ffffff"></rect></mask></defs></svg>