<svg id="visual" viewBox="0 0 1500 1000" width="1500" height="1000" xmlns="http://www.w3.org/2000/svg" xmlns:xlink="http://www.w3.org/1999/xlink" version="1.1"><rect x="0" y="0" width="1500" height="1000" fill="#000080"></rect><path d="M0 700L35.7 707.5C71.3 715 142.7 730 214.2 724.7C285.7 719.3 357.3 693.7 428.8 670.2C500.3 646.7 571.7 625.3 643 634.8C714.3 644.3 785.7 684.7 857 699C928.3 713.3 999.7 701.7 1071.2 701C1142.7 700.3 1214.3 710.7 1285.8 704.3C1357.3 698 1428.7 675 1464.3 663.5L1500 652L1500 1001L1464.3 1001C1428.7 1001 1357.3 1001 1285.8 1001C1214.3 1001 1142.7 1001 1071.2 1001C999.7 1001 928.3 1001 857 1001C785.7 1001 714.3 1001 643 1001C571.7 1001 500.3 1001 428.8 1001C357.3 1001 285.7 1001 214.2 1001C142.7 1001 71.3 1001 35.7 1001L0 1001Z" fill="#000080"></path><path d="M0 740L35.7 733.7C71.3 727.3 142.7 714.7 214.2 716.7C285.7 718.7 357.3 735.3 428.8 728C500.3 720.7 571.7 689.3 643 686.3C714.3 683.3 785.7 708.7 857 711.2C928.3 713.7 999.7 693.3 1071.2 691C1142.7 688.7 1214.3 704.3 1285.8 707.3C1357.3 710.3 1428.7 700.7 1464.3 695.8L1500 691L1500 1001L1464.3 1001C1428.7 1001 1357.3 1001 1285.8 1001C1214.3 1001 1142.7 1001 1071.2 1001C999.7 1001 928.3 1001 857 1001C785.7 1001 714.3 1001 643 1001C571.7 1001 500.3 1001 428.8 1001C357.3 1001 285.7 1001 214.2 1001C142.7 1001 71.3 1001 35.7 1001L0 1001Z" fill="#5b3fa0"></path><path d="M0 840L35.7 828.3C71.3 816.7 142.7 793.3 214.2 776.8C285.7 760.3 357.3 750.7 428.8 752.2C500.3 753.7 571.7 766.3 643 778.7C714.3 791 785.7 803 857 800.2C928.3 797.3 999.7 779.7 1071.2 767.7C1142.7 755.7 1214.3 749.3 1285.8 749.7C1357.3 750 1428.7 757 1464.3 760.5L1500 764L1500 1001L1464.3 1001C1428.7 1001 1357.3 1001 1285.8 1001C1214.3 1001 1142.7 1001 1071.2 1001C999.7 1001 928.3 1001 857 1001C785.7 1001 714.3 1001 643 1001C571.7 1001 500.3 1001 428.8 1001C357.3 1001 285.7 1001 214.2 1001C142.7 1001 71.3 1001 35.7 1001L0 1001Z" fill="#947bc0"></path><path d="M0 865L35.7 869.8C71.3 874.7 142.7 884.3 214.2 890.5C285.7 896.7 357.3 899.3 428.8 885.8C500.3 872.3 571.7 842.7 643 840.2C714.3 837.7 785.7 862.3 857 872C928.3 881.7 999.7 876.3 1071.2 862.3C1142.7 848.3 1214.3 825.7 1285.8 823C1357.3 820.3 1428.7 837.7 1464.3 846.3L1500 855L1500 1001L1464.3 1001C1428.7 1001 1357.3 1001 1285.8 1001C1214.3 1001 1142.7 1001 1071.2 1001C999.7 1001 928.3 1001 857 1001C785.7 1001 714.3 1001 643 1001C571.7 1001 500.3 1001 428.8 1001C357.3 1001 285.7 1001 214.2 1001C142.7 1001 71.3 1001 35.7 1001L0 1001Z" fill="#cabbe0"></path><path d="M0 876L35.7 887.5C71.3 899 142.7 922 214.2 928.7C285.7 935.3 357.3 925.7 428.8 922.8C500.3 920 571.7 924 643 921.2C714.3 918.3 785.7 908.7 857 908.7C928.3 908.7 999.7 918.3 1071.2 927.8C1142.7 937.3 1214.3 946.7 1285.8 945.5C1357.3 944.3 1428.7 932.7 1464.3 926.8L1500 921L1500 1001L1464.3 1001C1428.7 1001 1357.3 1001 1285.8 1001C1214.3 1001 1142.7 1001 1071.2 1001C999.7 1001 928.3 1001 857 1001C785.7 1001 714.3 1001 643 1001C571.7 1001 500.3 1001 428.8 1001C357.3 1001 285.7 1001 214.2 1001C142.7 1001 71.3 1001 35.7 1001L0 1001Z" fill="#ffffff"></path></svg>