<svg xmlns="http://www.w3.org/2000/svg" width="32" height="32" viewBox="0 0 32 32"><g fill="#1C1C1C"><path d="M16.245 0h-.49A9.754 9.754 0 0 0 6 9.755v12.49A9.754 9.754 0 0 0 15.755 32h.49A9.754 9.754 0 0 0 26 22.245V9.755A9.754 9.754 0 0 0 16.245 0zM25 22.127c0 4.9-3.972 8.873-8.873 8.873h-.255A8.872 8.872 0 0 1 7 22.127V9.873A8.872 8.872 0 0 1 15.873 1h.255C21.028 1 25 4.972 25 9.873v12.254z"/><path d="M16.186 6h-.373A1.814 1.814 0 0 0 14 7.814v6.373c0 1.001.812 1.813 1.814 1.813h.373A1.814 1.814 0 0 0 18 14.186V7.814A1.814 1.814 0 0 0 16.186 6zM17 14a1 1 0 0 1-2 0V8a1 1 0 0 1 2 0v6z"/></g></svg>