<svg id="visual" viewBox="0 0 1500 600" width="1500" height="600" xmlns="http://www.w3.org/2000/svg" xmlns:xlink="http://www.w3.org/1999/xlink" version="1.1"><rect x="0" y="0" width="1500" height="600" fill="#0d1727"></rect><path d="M0 439L35.7 431.5C71.3 424 142.7 409 214.2 422.5C285.7 436 357.3 478 428.8 491.2C500.3 504.3 571.7 488.7 643 472.3C714.3 456 785.7 439 857 436.2C928.3 433.3 999.7 444.7 1071.2 445.3C1142.7 446 1214.3 436 1285.8 432.3C1357.3 428.7 1428.7 431.3 1464.3 432.7L1500 434L1500 601L1464.3 601C1428.7 601 1357.3 601 1285.8 601C1214.3 601 1142.7 601 1071.2 601C999.7 601 928.3 601 857 601C785.7 601 714.3 601 643 601C571.7 601 500.3 601 428.8 601C357.3 601 285.7 601 214.2 601C142.7 601 71.3 601 35.7 601L0 601Z" fill="#fff" stroke-linecap="round" stroke-linejoin="miter"></path></svg>