<svg id="visual" viewBox="0 0 900 600" width="900" height="600" xmlns="http://www.w3.org/2000/svg" xmlns:xlink="http://www.w3.org/1999/xlink" version="1.1"><rect x="0" y="0" width="900" height="600" fill="#d4d4d8"></rect><path d="M0 439L21.5 431.5C43 424 86 409 128.8 422.5C171.7 436 214.3 478 257.2 491.2C300 504.3 343 488.7 385.8 472.3C428.7 456 471.3 439 514.2 436.2C557 433.3 600 444.7 642.8 445.3C685.7 446 728.3 436 771.2 432.3C814 428.7 857 431.3 878.5 432.7L900 434L900 601L878.5 601C857 601 814 601 771.2 601C728.3 601 685.7 601 642.8 601C600 601 557 601 514.2 601C471.3 601 428.7 601 385.8 601C343 601 300 601 257.2 601C214.3 601 171.7 601 128.8 601C86 601 43 601 21.5 601L0 601Z" fill="#fff" stroke-linecap="round" stroke-linejoin="miter"></path></svg>