<svg id="Layer_1" data-name="Layer 1" xmlns="http://www.w3.org/2000/svg" viewBox="0 0 650 512"><circle cx="337.96859" cy="243.39507" r="167.69471" fill="#dbe8ec"/><path d="M574.58343,223.75715V205.64747a13.02087,13.02087,0,0,0-13.02086-13.02087H505.60333a13.02086,13.02086,0,0,1-13.02086-13.02086V161.49606a13.02087,13.02087,0,0,1,13.02086-13.02087h21.45112a13.02087,13.02087,0,0,0,13.02086-13.02087V117.34464a13.02087,13.02087,0,0,0-13.02086-13.02087H143.13523a13.02087,13.02087,0,0,0-13.02087,13.02087v18.10968a13.02087,13.02087,0,0,0,13.02087,13.02087h0a13.02087,13.02087,0,0,1,13.02086,13.02087v18.10968a13.02086,13.02086,0,0,1-13.02086,13.02086H82.7824a13.02087,13.02087,0,0,0-13.02087,13.02087v18.10968A13.02087,13.02087,0,0,0,82.7824,236.778h59.75769A13.02087,13.02087,0,0,1,155.561,249.79889v18.10976c.31905,16.57135-35.82964,13.02087-43.02086,13.02087h-.04775a13.02087,13.02087,0,0,0-13.02087,13.02087V312.06a13.02087,13.02087,0,0,0,13.02087,13.02087h32.85852a13.02087,13.02087,0,0,1,13.02087,13.02087v18.10976a13.02087,13.02087,0,0,1-13.02087,13.02087H108.43743a13.02087,13.02087,0,0,0-13.02086,13.02087V400.3629a13.02086,13.02086,0,0,0,13.02086,13.02086H524.045a13.02087,13.02087,0,0,0,13.02087-13.02086V382.25322A13.02087,13.02087,0,0,0,524.045,369.23235H502.75526a13.02087,13.02087,0,0,1-13.02087-13.02087V338.10172a13.02087,13.02087,0,0,1,13.02087-13.02087h36.62008A13.02087,13.02087,0,0,0,552.39621,312.06V293.95039a13.02087,13.02087,0,0,0-13.02087-13.02087H521.30005a13.02087,13.02087,0,0,1-13.02087-13.02087V249.79889A13.02087,13.02087,0,0,1,521.30005,236.778h40.26252A13.02087,13.02087,0,0,0,574.58343,223.75715Z" fill="#dbe8ec"/><circle cx="340.67726" cy="148.54991" r="46.95856" fill="#3086a3"/><path d="M324.05253,138.77179q-.00092-.08715-.00092-.17432a16.62566,16.62566,0,1,1,16.86682,16.62391v15.09678" fill="none" stroke="#f9ae2b" stroke-linecap="round" stroke-linejoin="round" stroke-width="4"/><line x1="419.66773" y1="116.93931" x2="451.97056" y2="116.93931" fill="none" stroke="#3086a3" stroke-linecap="round" stroke-miterlimit="10" stroke-width="3"/><line x1="419.66773" y1="126.24984" x2="451.97056" y2="126.24984" fill="none" stroke="#3086a3" stroke-linecap="round" stroke-miterlimit="10" stroke-width="3"/><line x1="419.66773" y1="135.56037" x2="451.97056" y2="135.56037" fill="none" stroke="#3086a3" stroke-linecap="round" stroke-miterlimit="10" stroke-width="3"/><line x1="119.15346" y1="293.76157" x2="151.45629" y2="293.76157" fill="none" stroke="#3086a3" stroke-linecap="round" stroke-miterlimit="10" stroke-width="3"/><line x1="119.15346" y1="303.0721" x2="151.45629" y2="303.0721" fill="none" stroke="#3086a3" stroke-linecap="round" stroke-miterlimit="10" stroke-width="3"/><line x1="119.15346" y1="312.38262" x2="151.45629" y2="312.38262" fill="none" stroke="#3086a3" stroke-linecap="round" stroke-miterlimit="10" stroke-width="3"/><line x1="481.64015" y1="360.15603" x2="513.94297" y2="360.15603" fill="none" stroke="#3086a3" stroke-linecap="round" stroke-miterlimit="10" stroke-width="3"/><line x1="481.64015" y1="369.46656" x2="513.94297" y2="369.46656" fill="none" stroke="#3086a3" stroke-linecap="round" stroke-miterlimit="10" stroke-width="3"/><line x1="481.64015" y1="378.77709" x2="513.94297" y2="378.77709" fill="none" stroke="#3086a3" stroke-linecap="round" stroke-miterlimit="10" stroke-width="3"/><circle cx="520.57714" cy="300.49603" r="13.80727" fill="#b9d4db"/><circle cx="484.14126" cy="310.4605" r="7.15933" fill="#b9d4db"/><circle cx="502.32025" cy="266.71083" r="10.22761" fill="#b9d4db"/><circle cx="206.39263" cy="389.67449" r="16.42798" fill="#b9d4db"/><circle cx="175.00095" cy="377.9735" r="8.55706" fill="#b9d4db"/><circle cx="182.86072" cy="348.88551" r="4.93593" fill="#b9d4db"/><circle cx="210.18486" cy="352.37784" r="11.8326" fill="#b9d4db"/><circle cx="218.42324" cy="143.05908" r="16.42798" fill="#b9d4db"/><circle cx="219.08988" cy="109.56422" r="8.55706" fill="#b9d4db"/><circle cx="276.08471" cy="114.56397" r="7.40613" fill="#b9d4db"/><circle cx="249.14084" cy="107.36706" r="4.93593" fill="#b9d4db"/><circle cx="254.87688" cy="134.30964" r="11.8326" fill="#b9d4db"/><path d="M480.85793,233.2431H202.6215L193.549,210.24282h287.309a2.72176,2.72176,0,0,1,2.72176,2.72176v17.55676A2.72176,2.72176,0,0,1,480.85793,233.2431Z" fill="#409cb5"/><path d="M440.32266,354.08924H251.1267a4.53627,4.53627,0,0,1-4.24692-2.94208L202.6215,233.2431h268.547l-26.4204,117.30658A4.53627,4.53627,0,0,1,440.32266,354.08924Z" fill="#f9ae2b"/><path d="M457.56233,293.66888c-19.355,1.24146-38.71,1.89087-58.065,2.33216-9.6775.27637-19.355.33777-29.03251.50036l-29.0325.16578q-29.0325.02636-58.065-.65723c-19.355-.43945-38.71-1.09216-58.065-2.34107,19.355-1.2489,38.71-1.90148,58.065-2.34106q29.03249-.65185,58.065-.6571l29.0325.16565c9.6775.16259,19.355.224,29.03251.50048C418.8523,291.778,438.20731,292.42755,457.56233,293.66888Z" fill="#3086a3"/><path d="M419.70359,233.2431c-1.1026,10.54578-2.78772,20.96045-4.64789,31.33558q-2.82669,15.55462-6.30877,30.96154-3.46357,15.41108-7.56577,30.67835c-1.38006,5.08618-2.80926,10.16137-4.33484,15.21484-.78927,2.52075-1.54083,5.05-2.361,7.56384l-.632,1.90967a4.91879,4.91879,0,0,1-1.18194,1.85889,4.67456,4.67456,0,0,1-3.81363,1.32349,4.373,4.373,0,0,0,3.11981-1.90845,3.91413,3.91413,0,0,0,.633-1.61035l.25211-1.93872c.3367-2.62269.742-5.22986,1.10959-7.84571.78815-5.21948,1.6727-10.41736,2.60638-15.60412q2.82738-15.55444,6.31671-30.95972,3.47562-15.40833,7.57367-30.67664C413.23631,253.37482,416.17866,243.24335,419.70359,233.2431Z" fill="#3086a3"/><path d="M311.58605,354.0893a4.68121,4.68121,0,0,1-3.92411-1.458,6.69642,6.69642,0,0,1-1.156-1.8822l-.89646-1.85706c-1.1946-2.47632-2.32068-4.97827-3.4844-7.46619-2.27786-4.9945-4.463-10.02368-6.60287-15.06994q-6.39166-15.14906-12.15434-30.53431-5.78044-15.37866-10.948-30.9873c-3.41577-10.41675-6.65956-20.89807-9.33894-31.59119,5.01886,9.815,9.47332,19.8418,13.75582,29.93323q6.391,15.14941,12.14673,30.53723,5.76888,15.38306,10.94045,30.99012c1.70927,5.20788,3.37323,10.43273,4.94449,15.69238.76086,2.63916,1.55934,5.26416,2.28932,7.91479l.54693,1.98828a5.88655,5.88655,0,0,0,.66687,1.77539A4.37022,4.37022,0,0,0,311.58605,354.0893Z" fill="#3086a3"/><circle cx="298.10519" cy="428.05795" r="18.74336" fill="#409cb5"/><circle cx="298.10519" cy="428.05795" r="8.65078" fill="#dbe8ec"/><circle cx="406.22378" cy="428.05795" r="18.74336" fill="#409cb5"/><circle cx="406.22378" cy="428.05795" r="8.65078" fill="#dbe8ec"/><path d="M343.09231,233.2431c1.83931,9.99671,3.08253,20.02881,4.14664,30.07178q1.55889,15.06646,2.44714,30.173.9072,15.1053,1.161,30.24952c.13792,10.098.0925,20.207-.55473,30.35193-1.84722-9.99622-3.09265-20.02833-4.15473-30.07129q-1.5582-15.06666-2.43905-30.17347-.89487-15.106-1.15285-30.25012C342.40978,253.49628,342.453,243.38739,343.09231,233.2431Z" fill="#3086a3"/><path d="M437.93777,399.80133H268.38406a3.00011,3.00011,0,0,1-2.801-1.92578L167.38479,141.898H115.37112a3,3,0,0,1,0-6h54.07593a3.0001,3.0001,0,0,1,2.801,1.92578l98.19824,255.97754H437.93777a3,3,0,0,1,0,6Z" fill="#409cb5"/><rect x="103.85772" y="130.24803" width="39.6" height="18.36" rx="2" fill="#409cb5"/><circle cx="340.67726" cy="179.6" r="2.7" fill="#f9ae2b"/></svg>