<svg xmlns="http://www.w3.org/2000/svg" viewBox="0 0 500 500"><g id="freepik--background-complete--inject-45"><rect x="416.78" y="398.49" width="33.12" height="0.25" style="fill:#ebebeb"></rect><rect x="322.53" y="401.21" width="8.69" height="0.25" style="fill:#ebebeb"></rect><rect x="396.59" y="389.21" width="19.19" height="0.25" style="fill:#ebebeb"></rect><rect x="52.46" y="390.89" width="43.19" height="0.25" style="fill:#ebebeb"></rect><rect x="104.56" y="390.89" width="6.33" height="0.25" style="fill:#ebebeb"></rect><rect x="131.47" y="395.11" width="93.68" height="0.25" style="fill:#ebebeb"></rect><path d="M238.4,337.8H45.3a5.71,5.71,0,0,1-5.71-5.71V60.66A5.71,5.71,0,0,1,45.3,55H238.4a5.71,5.71,0,0,1,5.71,5.71V332.09A5.71,5.71,0,0,1,238.4,337.8ZM45.3,55.2a5.47,5.47,0,0,0-5.46,5.46V332.09a5.47,5.47,0,0,0,5.46,5.46H238.4a5.47,5.47,0,0,0,5.46-5.46V60.66a5.47,5.47,0,0,0-5.46-5.46Z" style="fill:#ebebeb"></path><path d="M454.7,337.8H261.6a5.71,5.71,0,0,1-5.71-5.71V60.66A5.71,5.71,0,0,1,261.6,55H454.7a5.71,5.71,0,0,1,5.71,5.71V332.09A5.71,5.71,0,0,1,454.7,337.8ZM261.6,55.2a5.47,5.47,0,0,0-5.46,5.46V332.09a5.47,5.47,0,0,0,5.46,5.46H454.7a5.47,5.47,0,0,0,5.46-5.46V60.66a5.47,5.47,0,0,0-5.46-5.46Z" style="fill:#ebebeb"></path><rect y="382.4" width="500" height="0.25" style="fill:#ebebeb"></rect><path d="M204.89,336.48H84.29V118.17L85.52,117a84.92,84.92,0,0,1,59.07-23.73h0A84.88,84.88,0,0,1,203.66,117l1.23,1.18Zm-112.6-8h104.6V121.61a77.39,77.39,0,0,0-104.6,0Z" style="fill:#e0e0e0"></path><polygon points="198.41 157.04 198.41 151.04 147.59 151.04 147.59 100.22 141.59 100.22 141.59 151.04 90.77 151.04 90.77 157.04 141.59 157.04 141.59 211.85 90.77 211.85 90.77 217.85 141.59 217.85 141.59 272.67 90.77 272.67 90.77 278.67 141.59 278.67 141.59 329.48 147.59 329.48 147.59 278.67 198.41 278.67 198.41 272.67 147.59 272.67 147.59 217.85 198.41 217.85 198.41 211.85 147.59 211.85 147.59 157.04 198.41 157.04" style="fill:#f5f5f5"></polygon><path d="M208.89,340.48H80.29V116.54l1.17-1.17a89.39,89.39,0,0,1,126.31,0l1.17,1.17Zm-120.6-8h112.6V119.87a81.37,81.37,0,0,0-112.6,0Z" style="fill:#ebebeb"></path><path d="M417.45,336.48H296.85V118.17l1.23-1.18a84.92,84.92,0,0,1,59.07-23.73h0A84.91,84.91,0,0,1,416.23,117l1.22,1.18Zm-112.6-8h104.6V121.61a77.39,77.39,0,0,0-104.6,0Z" style="fill:#e0e0e0"></path><polygon points="410.97 157.04 410.97 151.04 360.15 151.04 360.15 100.22 354.15 100.22 354.15 151.04 303.34 151.04 303.34 157.04 354.15 157.04 354.15 211.85 303.34 211.85 303.34 217.85 354.15 217.85 354.15 272.67 303.34 272.67 303.34 278.67 354.15 278.67 354.15 329.48 360.15 329.48 360.15 278.67 410.97 278.67 410.97 272.67 360.15 272.67 360.15 217.85 410.97 217.85 410.97 211.85 360.15 211.85 360.15 157.04 410.97 157.04" style="fill:#f5f5f5"></polygon><path d="M421.45,340.48H292.85V116.54l1.18-1.17a89.37,89.37,0,0,1,126.25,0l1.17,1.17Zm-120.6-8h112.6V119.87a81.37,81.37,0,0,0-112.6,0Z" style="fill:#ebebeb"></path><path d="M302.34,101.81H286.27c-.59,0-1.06-1-1.06-2.2V93.84c0-1.22.47-2.2,1.06-2.2h16.07c.59,0,1.06,1,1.06,2.2v5.77C303.4,100.82,302.93,101.81,302.34,101.81Z" style="fill:#e0e0e0"></path><path d="M283.26,101.81H267.19c-.58,0-1.06-1-1.06-2.2V93.84c0-1.22.48-2.2,1.06-2.2h16.07c.59,0,1.06,1,1.06,2.2v5.77C284.32,100.82,283.85,101.81,283.26,101.81Z" style="fill:#ebebeb"></path><path d="M310.76,89.22H294.68c-.58,0-1.05-1-1.05-2.2V81.25c0-1.22.47-2.2,1.05-2.2h16.08c.58,0,1.06,1,1.06,2.2V87C311.82,88.23,311.34,89.22,310.76,89.22Z" style="fill:#f0f0f0"></path><path d="M291.72,89.22H275.65c-.59,0-1.06-1-1.06-2.2V81.25c0-1.22.47-2.2,1.06-2.2h16.07c.58,0,1.06,1,1.06,2.2V87C292.78,88.23,292.3,89.22,291.72,89.22Z" style="fill:#f5f5f5"></path><path d="M226.84,107.5H210.77c-.59,0-1.06-1-1.06-2.2V99.53c0-1.22.47-2.2,1.06-2.2h16.07c.58,0,1.06,1,1.06,2.2v5.77C227.9,106.51,227.42,107.5,226.84,107.5Z" style="fill:#ebebeb"></path><path d="M231.33,94.91H215.26c-.58,0-1.06-1-1.06-2.2V86.94c0-1.22.48-2.2,1.06-2.2h16.07c.59,0,1.06,1,1.06,2.2v5.77C232.39,93.92,231.92,94.91,231.33,94.91Z" style="fill:#f0f0f0"></path><path d="M212.3,94.91H196.22c-.58,0-1.05-1-1.05-2.2V86.94c0-1.22.47-2.2,1.05-2.2H212.3c.58,0,1,1,1,2.2v5.77C213.35,93.92,212.88,94.91,212.3,94.91Z" style="fill:#f5f5f5"></path><path d="M57.08,104.26V98c0-1.33.59-2.4,1.32-2.4H78.48c.73,0,1.32,1.07,1.32,2.4v6.29c0,1.33-.59,2.41-1.32,2.41H58.4C57.67,106.67,57.08,105.59,57.08,104.26Z" style="fill:#ebebeb"></path><path d="M74.31,90.51V84.22c0-1.33.59-2.41,1.32-2.41H95.71c.73,0,1.32,1.08,1.32,2.41v6.29c0,1.33-.59,2.4-1.32,2.4H75.63C74.9,92.91,74.31,91.84,74.31,90.51Z" style="fill:#f0f0f0"></path><path d="M259.56,193V186.9c0-1.29.57-2.33,1.27-2.33h19.42c.7,0,1.27,1,1.27,2.33V193c0,1.28-.57,2.32-1.27,2.32H260.83C260.13,195.3,259.56,194.26,259.56,193Z" style="fill:#f5f5f5"></path><path d="M264.22,179.68V173.6c0-1.29.57-2.33,1.27-2.33h19.42c.7,0,1.27,1,1.27,2.33v6.08c0,1.29-.57,2.32-1.27,2.32H265.49C264.79,182,264.22,181,264.22,179.68Z" style="fill:#f0f0f0"></path><path d="M215.91,168.28v-6.09c0-1.28.57-2.32,1.28-2.32h19.42c.7,0,1.27,1,1.27,2.32v6.09c0,1.28-.57,2.32-1.27,2.32H217.19C216.48,170.6,215.91,169.56,215.91,168.28Z" style="fill:#f0f0f0"></path><path d="M419.05,103.29V97c0-1.32.6-2.4,1.32-2.4h20.08c.73,0,1.32,1.08,1.32,2.4v6.3c0,1.32-.59,2.4-1.32,2.4H420.37C419.65,105.69,419.05,104.61,419.05,103.29Z" style="fill:#ebebeb"></path><path d="M402.69,89.53V83.24c0-1.33.6-2.4,1.32-2.4h20.08c.73,0,1.32,1.07,1.32,2.4v6.29c0,1.33-.59,2.4-1.32,2.4H404C403.29,91.93,402.69,90.86,402.69,89.53Z" style="fill:#f5f5f5"></path></g><g id="freepik--Shadow--inject-45"><ellipse id="freepik--path--inject-45" cx="250" cy="415.69" rx="193.89" ry="11.32" style="fill:#f5f5f5"></ellipse></g><g id="freepik--Shelves--inject-45"><g id="freepik--freepik--Bookshelf--inject-2--inject-45"><rect x="87.1" y="152.28" width="103.52" height="260.81" style="fill:#407BFF"></rect><rect x="87.1" y="152.28" width="103.52" height="260.81" style="fill:#fff;isolation:isolate;opacity:0.2"></rect><path d="M68,150V415.42H87.1V150Z" style="fill:#407BFF"></path><path d="M68,150V415.42H87.1V150Z" style="fill:#fff;isolation:isolate;opacity:0.5"></path><path d="M189.71,150V415.42h19.07V150Z" style="fill:#407BFF"></path><path d="M189.71,150V415.42h19.07V150Z" style="fill:#fff;isolation:isolate;opacity:0.4"></path><path d="M84.77,150V415.42H212V150Zm122.67,4.57v47.59h-118V154.57Zm-118,151.91V258.9H207.44v47.58Zm118.05,4.6v47.58h-118V311.08Zm-118-56.75V206.74H207.44v47.59Zm0,156.48V363.22H207.44v47.59Z" style="fill:#407BFF"></path><path d="M84.77,150V415.42H212V150Zm122.67,4.57v47.59h-118V154.57Zm-118,151.91V258.9H207.44v47.58Zm118.05,4.6v47.58h-118V311.08Zm-118-56.75V206.74H207.44v47.59Zm0,156.48V363.22H207.44v47.59Z" style="fill:#fff;isolation:isolate;opacity:0.7000000000000001"></path><rect x="128.35" y="165.24" width="4.4" height="36.93" style="fill:#263238"></rect><rect x="123.95" y="165.24" width="4.4" height="36.93" style="fill:#407BFF"></rect><rect x="123.95" y="165.24" width="4.4" height="36.93" style="fill:#fff;isolation:isolate;opacity:0.4"></rect><rect x="132.75" y="167.82" width="8.8" height="34.33" style="fill:#407BFF"></rect><rect x="132.75" y="167.82" width="8.8" height="34.33" style="fill:#fff;isolation:isolate;opacity:0.6000000000000001"></rect><rect x="145.95" y="165.24" width="5.68" height="36.93" style="fill:#407BFF"></rect><rect x="141.55" y="165.24" width="4.4" height="36.93" style="fill:#407BFF"></rect><rect x="141.55" y="165.24" width="4.4" height="36.93" style="fill:#fff;isolation:isolate;opacity:0.7000000000000001"></rect><rect x="179.32" y="165.24" width="5.68" height="36.93" style="fill:#407BFF"></rect><rect x="179.32" y="165.24" width="5.68" height="36.93" style="fill:#fff;isolation:isolate;opacity:0.7000000000000001"></rect><rect x="174.93" y="165.24" width="4.4" height="36.93" style="fill:#407BFF"></rect><rect x="174.93" y="165.24" width="4.4" height="36.93" style="fill:#fff;isolation:isolate;opacity:0.6000000000000001"></rect><rect x="160.44" y="165.24" width="5.68" height="36.93" style="fill:#407BFF"></rect><rect x="160.44" y="165.24" width="5.68" height="36.93" style="fill:#fff;isolation:isolate;opacity:0.6000000000000001"></rect><rect x="156.04" y="165.24" width="4.4" height="36.93" style="fill:#407BFF"></rect><rect x="156.04" y="165.24" width="4.4" height="36.93" style="isolation:isolate;opacity:0.1"></rect><rect x="185.01" y="166.11" width="8.8" height="36.05" style="fill:#407BFF"></rect><rect x="185.01" y="166.11" width="8.8" height="36.05" style="fill:#fff;isolation:isolate;opacity:0.1"></rect><rect x="193.81" y="166.11" width="4.4" height="36.05" style="fill:#407BFF"></rect><rect x="193.81" y="166.11" width="4.4" height="36.05" style="fill:#fff;isolation:isolate;opacity:0.6000000000000001"></rect><rect x="166.12" y="166.11" width="5.87" height="36.05" style="fill:#263238"></rect><rect x="171.99" y="166.11" width="2.94" height="36.05" style="fill:#407BFF"></rect><rect x="171.99" y="166.11" width="2.94" height="36.05" style="fill:#fff;isolation:isolate;opacity:0.30000000000000004"></rect><rect x="151.64" y="167.82" width="8.8" height="34.33" style="fill:#407BFF"></rect><rect x="151.64" y="167.82" width="8.8" height="34.33" style="fill:#fff;isolation:isolate;opacity:0.1"></rect><rect x="105.07" y="165.24" width="5.68" height="36.93" style="fill:#407BFF"></rect><rect x="105.07" y="165.24" width="5.68" height="36.93" style="fill:#fff;isolation:isolate;opacity:0.30000000000000004"></rect><rect x="100.67" y="165.24" width="4.4" height="36.93" style="fill:#407BFF"></rect><rect x="100.67" y="165.24" width="4.4" height="36.93" style="fill:#fff;isolation:isolate;opacity:0.2"></rect><rect x="110.75" y="166.11" width="8.8" height="36.05" style="fill:#263238"></rect><rect x="119.55" y="166.11" width="4.4" height="36.05" style="fill:#407BFF"></rect><rect x="119.55" y="166.11" width="4.4" height="36.05" style="fill:#fff;isolation:isolate;opacity:0.6000000000000001"></rect><rect x="91.87" y="166.11" width="5.87" height="36.05" style="fill:#407BFF"></rect><rect x="91.87" y="166.11" width="5.87" height="36.05" style="fill:#fff;isolation:isolate;opacity:0.1"></rect><rect x="97.73" y="166.11" width="2.94" height="36.05" style="fill:#407BFF"></rect><rect x="97.73" y="166.11" width="2.94" height="36.05" style="fill:#fff;isolation:isolate;opacity:0.6000000000000001"></rect><rect x="155.81" y="217.52" width="4.29" height="36.82" style="fill:#407BFF"></rect><rect x="155.81" y="217.52" width="4.29" height="36.82" style="fill:#fff;isolation:isolate;opacity:0.1"></rect><rect x="160.12" y="217.52" width="4.29" height="36.82" style="fill:#407BFF"></rect><rect x="160.12" y="217.52" width="4.29" height="36.82" style="fill:#fff;isolation:isolate;opacity:0.4"></rect><rect x="147.22" y="220.1" width="8.59" height="34.23" style="fill:#407BFF"></rect><rect x="147.22" y="220.1" width="8.59" height="34.23" style="fill:#fff;isolation:isolate;opacity:0.6000000000000001"></rect><rect x="137.38" y="217.52" width="5.55" height="36.82" style="fill:#263238"></rect><rect x="142.93" y="217.52" width="4.29" height="36.82" style="fill:#407BFF"></rect><rect x="142.93" y="217.52" width="4.29" height="36.82" style="isolation:isolate;opacity:0.1"></rect><rect x="104.8" y="217.52" width="5.55" height="36.82" style="fill:#407BFF"></rect><rect x="104.8" y="217.52" width="5.55" height="36.82" style="isolation:isolate;opacity:0.1"></rect><rect x="110.35" y="217.52" width="4.29" height="36.82" style="fill:#407BFF"></rect><rect x="110.35" y="217.52" width="4.29" height="36.82" style="fill:#fff;isolation:isolate;opacity:0.6000000000000001"></rect><rect x="123.24" y="217.52" width="5.55" height="36.82" style="fill:#407BFF"></rect><rect x="123.24" y="217.52" width="5.55" height="36.82" style="fill:#fff;isolation:isolate;opacity:0.6000000000000001"></rect><rect x="128.79" y="217.52" width="4.29" height="36.82" style="fill:#407BFF"></rect><rect x="128.79" y="217.52" width="4.29" height="36.82" style="isolation:isolate;opacity:0.1"></rect><rect x="96.2" y="218.39" width="8.59" height="35.94" style="fill:#263238"></rect><rect x="96.2" y="218.39" width="8.59" height="35.94" style="fill:#fff;opacity:0.2"></rect><rect x="91.91" y="218.39" width="4.29" height="35.94" style="fill:#407BFF"></rect><rect x="91.91" y="218.39" width="4.29" height="35.94" style="fill:#fff;isolation:isolate;opacity:0.6000000000000001"></rect><rect x="117.5" y="218.39" width="5.73" height="35.94" style="fill:#407BFF"></rect><rect x="117.5" y="218.39" width="5.73" height="35.94" style="fill:#fff;isolation:isolate;opacity:0.1"></rect><rect x="114.64" y="218.39" width="2.87" height="35.94" style="fill:#407BFF"></rect><rect x="114.64" y="218.39" width="2.87" height="35.94" style="fill:#fff;isolation:isolate;opacity:0.30000000000000004"></rect><rect x="128.78" y="220.1" width="8.59" height="34.23" style="fill:#407BFF"></rect><rect x="128.78" y="220.1" width="8.59" height="34.23" style="fill:#fff;isolation:isolate;opacity:0.1"></rect><rect x="177.29" y="217.52" width="5.55" height="36.82" style="fill:#263238"></rect><rect x="182.85" y="217.52" width="4.29" height="36.82" style="fill:#407BFF"></rect><rect x="182.85" y="217.52" width="4.29" height="36.82" style="fill:#fff;isolation:isolate;opacity:0.2"></rect><rect x="168.7" y="218.39" width="8.59" height="35.94" style="fill:#407BFF"></rect><rect x="168.7" y="218.39" width="8.59" height="35.94" style="fill:#fff;isolation:isolate;opacity:0.1"></rect><rect x="164.41" y="218.39" width="4.29" height="35.94" style="fill:#407BFF"></rect><rect x="164.41" y="218.39" width="4.29" height="35.94" style="fill:#fff;isolation:isolate;opacity:0.6000000000000001"></rect><rect x="190" y="218.39" width="5.73" height="35.94" style="fill:#407BFF"></rect><rect x="187.13" y="218.39" width="2.87" height="35.94" style="fill:#407BFF"></rect><rect x="187.13" y="218.39" width="2.87" height="35.94" style="fill:#fff;isolation:isolate;opacity:0.6000000000000001"></rect><rect x="127.56" y="322.2" width="4.29" height="36.45" style="fill:#263238"></rect><rect x="123.26" y="322.2" width="4.29" height="36.45" style="fill:#407BFF"></rect><rect x="123.26" y="322.2" width="4.29" height="36.45" style="fill:#fff;isolation:isolate;opacity:0.4"></rect><rect x="131.85" y="324.76" width="8.59" height="33.89" style="fill:#407BFF"></rect><rect x="131.85" y="324.76" width="8.59" height="33.89" style="fill:#fff;isolation:isolate;opacity:0.6000000000000001"></rect><rect x="144.74" y="322.2" width="5.55" height="36.45" style="fill:#407BFF"></rect><rect x="140.44" y="322.2" width="4.29" height="36.45" style="fill:#407BFF"></rect><rect x="140.44" y="322.2" width="4.29" height="36.45" style="fill:#fff;isolation:isolate;opacity:0.6000000000000001"></rect><rect x="177.32" y="322.2" width="5.55" height="36.45" style="fill:#407BFF"></rect><rect x="177.32" y="322.2" width="5.55" height="36.45" style="fill:#fff;isolation:isolate;opacity:0.30000000000000004"></rect><rect x="173.03" y="322.2" width="4.29" height="36.45" style="fill:#407BFF"></rect><rect x="173.03" y="322.2" width="4.29" height="36.45" style="fill:#fff;isolation:isolate;opacity:0.6000000000000001"></rect><rect x="158.89" y="322.2" width="5.55" height="36.45" style="fill:#263238"></rect><rect x="154.58" y="322.2" width="4.29" height="36.45" style="fill:#407BFF"></rect><rect x="154.58" y="322.2" width="4.29" height="36.45" style="isolation:isolate;opacity:0.1"></rect><rect x="182.88" y="323.06" width="8.59" height="35.6" style="fill:#407BFF"></rect><rect x="182.88" y="323.06" width="8.59" height="35.6" style="fill:#fff;isolation:isolate;opacity:0.1"></rect><rect x="191.46" y="323.06" width="4.29" height="35.6" style="fill:#407BFF"></rect><rect x="191.46" y="323.06" width="4.29" height="35.6" style="fill:#fff;isolation:isolate;opacity:0.6000000000000001"></rect><rect x="164.43" y="323.06" width="5.73" height="35.6" style="fill:#407BFF"></rect><rect x="164.43" y="323.06" width="5.73" height="35.6" style="fill:#fff;isolation:isolate;opacity:0.4"></rect><rect x="170.16" y="323.06" width="2.87" height="35.6" style="fill:#407BFF"></rect><rect x="170.16" y="323.06" width="2.87" height="35.6" style="fill:#fff;isolation:isolate;opacity:0.30000000000000004"></rect><rect x="150.28" y="324.76" width="8.59" height="33.89" style="fill:#407BFF"></rect><rect x="150.28" y="324.76" width="8.59" height="33.89" style="fill:#fff;isolation:isolate;opacity:0.30000000000000004"></rect><rect x="104.82" y="322.2" width="5.55" height="36.45" style="fill:#407BFF"></rect><rect x="104.82" y="322.2" width="5.55" height="36.45" style="isolation:isolate;opacity:0.1"></rect><rect x="100.52" y="322.2" width="4.29" height="36.45" style="fill:#263238"></rect><rect x="110.37" y="323.06" width="8.59" height="35.6" style="fill:#263238"></rect><rect x="110.37" y="323.06" width="8.59" height="35.6" style="fill:#fff;opacity:0.5"></rect><rect x="118.97" y="323.06" width="4.29" height="35.6" style="fill:#407BFF"></rect><rect x="118.97" y="323.06" width="4.29" height="35.6" style="fill:#fff;isolation:isolate;opacity:0.6000000000000001"></rect><rect x="91.94" y="323.06" width="5.73" height="35.6" style="fill:#407BFF"></rect><rect x="91.94" y="323.06" width="5.73" height="35.6" style="fill:#fff;isolation:isolate;opacity:0.1"></rect><rect x="97.66" y="323.06" width="2.87" height="35.6" style="fill:#407BFF"></rect><rect x="97.66" y="323.06" width="2.87" height="35.6" style="fill:#fff;isolation:isolate;opacity:0.6000000000000001"></rect><rect x="127.52" y="374.82" width="4.29" height="36" style="fill:#263238"></rect><rect x="127.52" y="374.82" width="4.29" height="36" style="fill:#fff;opacity:0.5"></rect><rect x="123.24" y="374.82" width="4.29" height="36" style="fill:#407BFF"></rect><rect x="123.24" y="374.82" width="4.29" height="36" style="fill:#fff;isolation:isolate;opacity:0.4"></rect><rect x="131.82" y="377.36" width="8.59" height="33.47" style="fill:#407BFF"></rect><rect x="131.82" y="377.36" width="8.59" height="33.47" style="fill:#fff;isolation:isolate;opacity:0.6000000000000001"></rect><rect x="144.71" y="374.82" width="5.55" height="36" style="fill:#407BFF"></rect><rect x="140.42" y="374.82" width="4.29" height="36" style="fill:#407BFF"></rect><rect x="140.42" y="374.82" width="4.29" height="36" style="isolation:isolate;opacity:0.1"></rect><rect x="177.29" y="374.82" width="5.55" height="36" style="fill:#407BFF"></rect><rect x="177.29" y="374.82" width="5.55" height="36" style="fill:#fff;isolation:isolate;opacity:0.4"></rect><rect x="172.99" y="374.82" width="4.29" height="36" style="fill:#407BFF"></rect><rect x="172.99" y="374.82" width="4.29" height="36" style="fill:#fff;isolation:isolate;opacity:0.6000000000000001"></rect><rect x="158.85" y="374.82" width="5.55" height="36" style="fill:#263238"></rect><rect x="154.56" y="374.82" width="4.29" height="36" style="fill:#407BFF"></rect><rect x="154.56" y="374.82" width="4.29" height="36" style="isolation:isolate;opacity:0.1"></rect><rect x="182.84" y="375.69" width="8.59" height="35.15" style="fill:#407BFF"></rect><rect x="182.84" y="375.69" width="8.59" height="35.15" style="fill:#fff;isolation:isolate;opacity:0.2"></rect><rect x="191.44" y="375.69" width="4.29" height="35.15" style="fill:#407BFF"></rect><rect x="191.44" y="375.69" width="4.29" height="35.15" style="fill:#fff;isolation:isolate;opacity:0.6000000000000001"></rect><rect x="164.4" y="375.69" width="5.73" height="35.15" style="fill:#407BFF"></rect><rect x="164.4" y="375.69" width="5.73" height="35.15" style="fill:#fff;isolation:isolate;opacity:0.30000000000000004"></rect><rect x="170.13" y="375.69" width="2.87" height="35.15" style="fill:#407BFF"></rect><rect x="170.13" y="375.69" width="2.87" height="35.15" style="fill:#fff;isolation:isolate;opacity:0.30000000000000004"></rect><rect x="150.27" y="377.36" width="8.59" height="33.47" style="fill:#407BFF"></rect><rect x="150.27" y="377.36" width="8.59" height="33.47" style="fill:#fff;isolation:isolate;opacity:0.5"></rect><rect x="104.79" y="374.82" width="5.55" height="36" style="fill:#407BFF"></rect><rect x="104.79" y="374.82" width="5.55" height="36" style="isolation:isolate;opacity:0.1"></rect><rect x="100.5" y="374.82" width="4.29" height="36" style="fill:#407BFF"></rect><rect x="100.5" y="374.82" width="4.29" height="36" style="fill:#fff;isolation:isolate;opacity:0.2"></rect><rect x="110.35" y="375.69" width="8.59" height="35.15" style="fill:#263238"></rect><rect x="118.94" y="375.69" width="4.29" height="35.15" style="fill:#407BFF"></rect><rect x="118.94" y="375.69" width="4.29" height="35.15" style="fill:#fff;isolation:isolate;opacity:0.6000000000000001"></rect><rect x="91.9" y="375.69" width="5.73" height="35.15" style="fill:#407BFF"></rect><rect x="91.9" y="375.69" width="5.73" height="35.15" style="fill:#fff;isolation:isolate;opacity:0.30000000000000004"></rect><rect x="97.64" y="375.69" width="2.87" height="35.15" style="fill:#407BFF"></rect><rect x="97.64" y="375.69" width="2.87" height="35.15" style="fill:#fff;isolation:isolate;opacity:0.6000000000000001"></rect><rect x="157.98" y="269.06" width="4.44" height="37.42" style="fill:#407BFF"></rect><rect x="157.98" y="269.06" width="4.44" height="37.42" style="fill:#fff;isolation:isolate;opacity:0.5"></rect><rect x="162.42" y="269.06" width="4.44" height="37.42" style="fill:#407BFF"></rect><rect x="162.42" y="269.06" width="4.44" height="37.42" style="fill:#fff;isolation:isolate;opacity:0.4"></rect><rect x="149.1" y="271.69" width="8.88" height="34.79" style="fill:#407BFF"></rect><rect x="149.1" y="271.69" width="8.88" height="34.79" style="fill:#fff;isolation:isolate;opacity:0.6000000000000001"></rect><rect x="138.91" y="269.06" width="5.74" height="37.42" style="fill:#263238"></rect><rect x="138.91" y="269.06" width="5.74" height="37.42" style="fill:#fff;opacity:0.2"></rect><rect x="144.66" y="269.06" width="4.44" height="37.42" style="fill:#407BFF"></rect><rect x="144.66" y="269.06" width="4.44" height="37.42" style="fill:#fff;isolation:isolate;opacity:0.30000000000000004"></rect><rect x="105.22" y="269.06" width="5.74" height="37.42" style="fill:#407BFF"></rect><rect x="105.22" y="269.06" width="5.74" height="37.42" style="isolation:isolate;opacity:0.1"></rect><rect x="110.97" y="269.06" width="4.44" height="37.42" style="fill:#407BFF"></rect><rect x="110.97" y="269.06" width="4.44" height="37.42" style="fill:#fff;isolation:isolate;opacity:0.6000000000000001"></rect><rect x="124.29" y="269.06" width="5.74" height="37.42" style="fill:#407BFF"></rect><rect x="124.29" y="269.06" width="5.74" height="37.42" style="fill:#fff;isolation:isolate;opacity:0.6000000000000001"></rect><rect x="130.03" y="269.06" width="4.44" height="37.42" style="fill:#407BFF"></rect><rect x="130.03" y="269.06" width="4.44" height="37.42" style="isolation:isolate;opacity:0.1"></rect><rect x="96.35" y="269.95" width="8.88" height="36.54" style="fill:#263238"></rect><rect x="96.35" y="269.95" width="8.88" height="36.54" style="fill:#fff;opacity:0.5"></rect><rect x="91.91" y="269.95" width="4.44" height="36.54" style="fill:#407BFF"></rect><rect x="91.91" y="269.95" width="4.44" height="36.54" style="fill:#fff;isolation:isolate;opacity:0.6000000000000001"></rect><rect x="118.37" y="269.95" width="5.92" height="36.54" style="fill:#407BFF"></rect><rect x="118.37" y="269.95" width="5.92" height="36.54" style="fill:#fff;isolation:isolate;opacity:0.30000000000000004"></rect><rect x="115.41" y="269.95" width="2.96" height="36.54" style="fill:#407BFF"></rect><rect x="115.41" y="269.95" width="2.96" height="36.54" style="fill:#fff;isolation:isolate;opacity:0.30000000000000004"></rect><rect x="130.03" y="271.69" width="8.88" height="34.79" style="fill:#407BFF"></rect><rect x="130.03" y="271.69" width="8.88" height="34.79" style="fill:#fff;isolation:isolate;opacity:0.4"></rect><rect x="180.18" y="269.06" width="5.74" height="37.42" style="fill:#407BFF"></rect><rect x="180.18" y="269.06" width="5.74" height="37.42" style="fill:#fff;isolation:isolate;opacity:0.4"></rect><rect x="185.92" y="269.06" width="4.44" height="37.42" style="fill:#407BFF"></rect><rect x="185.92" y="269.06" width="4.44" height="37.42" style="fill:#fff;isolation:isolate;opacity:0.2"></rect><rect x="171.3" y="269.95" width="8.88" height="36.54" style="fill:#407BFF"></rect><rect x="171.3" y="269.95" width="8.88" height="36.54" style="fill:#fff;isolation:isolate;opacity:0.30000000000000004"></rect><rect x="166.86" y="269.95" width="4.44" height="36.54" style="fill:#407BFF"></rect><rect x="166.86" y="269.95" width="4.44" height="36.54" style="fill:#fff;isolation:isolate;opacity:0.6000000000000001"></rect><rect x="193.32" y="269.95" width="5.92" height="36.54" style="fill:#407BFF"></rect><rect x="193.32" y="269.95" width="5.92" height="36.54" style="fill:#fff;isolation:isolate;opacity:0.5"></rect><rect x="190.36" y="269.95" width="2.96" height="36.54" style="fill:#407BFF"></rect><rect x="190.36" y="269.95" width="2.96" height="36.54" style="fill:#fff;isolation:isolate;opacity:0.6000000000000001"></rect></g></g><g id="freepik--Table--inject-45"><rect x="163.84" y="302.15" width="56.77" height="111.92" style="fill:#407BFF"></rect><rect x="163.84" y="302.15" width="56.77" height="111.92" style="fill:#fff;opacity:0.8"></rect><rect x="220.79" y="302.15" width="64.93" height="111.92" style="fill:#407BFF"></rect><rect x="220.79" y="302.15" width="64.93" height="111.92" style="fill:#fff;opacity:0.5"></rect><path d="M215.61,332.35V311.62a4.46,4.46,0,0,1-4.46-4.47h-37.8a4.47,4.47,0,0,1-4.47,4.47h0v20.73h0a4.47,4.47,0,0,1,4.47,4.46h37.8A4.46,4.46,0,0,1,215.61,332.35Z" style="fill:#407BFF"></path><path d="M215.61,332.35V311.62a4.46,4.46,0,0,1-4.46-4.47h-37.8a4.47,4.47,0,0,1-4.47,4.47h0v20.73h0a4.47,4.47,0,0,1,4.47,4.46h37.8A4.46,4.46,0,0,1,215.61,332.35Z" style="fill:#fff;opacity:0.6000000000000001"></path><path d="M171.13,332.35V311.62a4.47,4.47,0,0,0,4.47-4.47h-2.25a4.47,4.47,0,0,1-4.47,4.47v20.73a4.47,4.47,0,0,1,4.47,4.46h2.25A4.47,4.47,0,0,0,171.13,332.35Z" style="fill:#407BFF"></path><path d="M171.13,332.35V311.62a4.47,4.47,0,0,0,4.47-4.47h-2.25a4.47,4.47,0,0,1-4.47,4.47v20.73a4.47,4.47,0,0,1,4.47,4.46h2.25A4.47,4.47,0,0,0,171.13,332.35Z" style="fill:#fff;opacity:0.2"></path><path d="M187.5,322a2.28,2.28,0,1,1-2.28-2.28A2.29,2.29,0,0,1,187.5,322Z" style="fill:#407BFF"></path><path d="M199.48,322a2.29,2.29,0,1,1-2.29-2.28A2.3,2.3,0,0,1,199.48,322Z" style="fill:#407BFF"></path><polygon points="185.63 314.98 193.46 307.15 177.8 307.15 185.63 314.98" style="fill:#263238"></polygon><polygon points="185.63 314.98 193.46 307.15 177.8 307.15 185.63 314.98" style="fill:#fff;opacity:0.7000000000000001"></polygon><polygon points="193.27 312.98 199.1 307.15 187.44 307.15 193.27 312.98" style="fill:#263238"></polygon><polygon points="193.27 312.98 199.1 307.15 187.44 307.15 193.27 312.98" style="fill:#fff;opacity:0.8"></polygon><path d="M195.24,328.8h-8a2.82,2.82,0,0,1-2.83-2.83v-4.14a.85.85,0,0,1,.85-.85h0a.85.85,0,0,1,.85.85V326a1.13,1.13,0,0,0,1.13,1.14h8a1.14,1.14,0,0,0,1.14-1.14v-4.14a.85.85,0,0,1,.85-.85h0a.85.85,0,0,1,.85.85V326A2.83,2.83,0,0,1,195.24,328.8Z" style="fill:#263238"></path><path d="M215.61,368.48V347.75a4.46,4.46,0,0,1-4.46-4.47h-37.8a4.47,4.47,0,0,1-4.47,4.47h0v20.73h0a4.47,4.47,0,0,1,4.47,4.46h37.8A4.46,4.46,0,0,1,215.61,368.48Z" style="fill:#407BFF"></path><path d="M215.61,368.48V347.75a4.46,4.46,0,0,1-4.46-4.47h-37.8a4.47,4.47,0,0,1-4.47,4.47h0v20.73h0a4.47,4.47,0,0,1,4.47,4.46h37.8A4.46,4.46,0,0,1,215.61,368.48Z" style="fill:#fff;opacity:0.6000000000000001"></path><path d="M171.13,368.48V347.75a4.47,4.47,0,0,0,4.47-4.47h-2.25a4.47,4.47,0,0,1-4.47,4.47v20.73a4.47,4.47,0,0,1,4.47,4.46h2.25A4.47,4.47,0,0,0,171.13,368.48Z" style="fill:#407BFF"></path><path d="M171.13,368.48V347.75a4.47,4.47,0,0,0,4.47-4.47h-2.25a4.47,4.47,0,0,1-4.47,4.47v20.73a4.47,4.47,0,0,1,4.47,4.46h2.25A4.47,4.47,0,0,0,171.13,368.48Z" style="fill:#fff;opacity:0.2"></path><path d="M187.5,358.11a2.28,2.28,0,1,1-2.28-2.28A2.29,2.29,0,0,1,187.5,358.11Z" style="fill:#407BFF"></path><path d="M199.48,358.11a2.29,2.29,0,1,1-2.29-2.28A2.3,2.3,0,0,1,199.48,358.11Z" style="fill:#407BFF"></path><path d="M195.24,364.93h-8a2.82,2.82,0,0,1-2.83-2.83V358a.86.86,0,0,1,.85-.85h0a.86.86,0,0,1,.85.85v4.14a1.13,1.13,0,0,0,1.13,1.14h8a1.14,1.14,0,0,0,1.14-1.14V358a.86.86,0,0,1,.85-.85h0a.86.86,0,0,1,.85.85v4.14A2.83,2.83,0,0,1,195.24,364.93Z" style="fill:#263238"></path><path d="M215.61,404.61V383.88a4.46,4.46,0,0,1-4.46-4.47h-37.8a4.47,4.47,0,0,1-4.47,4.47h0v20.73h0a4.47,4.47,0,0,1,4.47,4.46h37.8A4.46,4.46,0,0,1,215.61,404.61Z" style="fill:#407BFF"></path><path d="M215.61,404.61V383.88a4.46,4.46,0,0,1-4.46-4.47h-37.8a4.47,4.47,0,0,1-4.47,4.47h0v20.73h0a4.47,4.47,0,0,1,4.47,4.46h37.8A4.46,4.46,0,0,1,215.61,404.61Z" style="fill:#fff;opacity:0.6000000000000001"></path><path d="M171.13,404.61V383.88a4.47,4.47,0,0,0,4.47-4.47h-2.25a4.47,4.47,0,0,1-4.47,4.47v20.73a4.47,4.47,0,0,1,4.47,4.46h2.25A4.47,4.47,0,0,0,171.13,404.61Z" style="fill:#407BFF"></path><path d="M171.13,404.61V383.88a4.47,4.47,0,0,0,4.47-4.47h-2.25a4.47,4.47,0,0,1-4.47,4.47v20.73a4.47,4.47,0,0,1,4.47,4.46h2.25A4.47,4.47,0,0,0,171.13,404.61Z" style="fill:#fff;opacity:0.2"></path><path d="M187.5,394.24a2.28,2.28,0,1,1-2.28-2.28A2.29,2.29,0,0,1,187.5,394.24Z" style="fill:#407BFF"></path><path d="M199.48,394.24a2.29,2.29,0,1,1-2.29-2.28A2.3,2.3,0,0,1,199.48,394.24Z" style="fill:#407BFF"></path><path d="M195.24,401.06h-8a2.82,2.82,0,0,1-2.83-2.83v-4.14a.85.85,0,0,1,.85-.85h0a.85.85,0,0,1,.85.85v4.14a1.13,1.13,0,0,0,1.13,1.14h8a1.14,1.14,0,0,0,1.14-1.14v-4.14a.85.85,0,0,1,.85-.85h0a.85.85,0,0,1,.85.85v4.14A2.83,2.83,0,0,1,195.24,401.06Z" style="fill:#263238"></path><polygon points="181.63 387.65 194.13 379.15 177.13 379.15 181.63 387.65" style="fill:#263238"></polygon><polygon points="181.63 387.65 194.13 379.15 177.13 379.15 181.63 387.65" style="fill:#fff;opacity:0.8"></polygon><rect x="156.84" y="294.59" width="276.55" height="7.56" style="fill:none"></rect><rect x="156.84" y="294.59" width="276.55" height="7.56" style="fill:#407BFF"></rect><rect x="156.84" y="294.59" width="196.72" height="7.56" style="fill:#407BFF"></rect><rect x="156.84" y="294.59" width="196.72" height="7.56" style="fill:#fff;opacity:0.30000000000000004"></rect><rect x="296.61" y="302.15" width="56.77" height="111.92" style="fill:#407BFF"></rect><rect x="296.61" y="302.15" width="56.77" height="111.92" style="fill:#fff;opacity:0.8"></rect><rect x="353.56" y="302.15" width="71.93" height="111.92" style="fill:#407BFF"></rect><rect x="353.56" y="302.15" width="71.93" height="111.92" style="fill:#fff;opacity:0.5"></rect><path d="M348.38,332.35V311.62a4.47,4.47,0,0,1-4.46-4.47h-37.8a4.47,4.47,0,0,1-4.46,4.47h0v20.73h0a4.46,4.46,0,0,1,4.46,4.46h37.8A4.46,4.46,0,0,1,348.38,332.35Z" style="fill:#407BFF"></path><path d="M348.38,332.35V311.62a4.47,4.47,0,0,1-4.46-4.47h-37.8a4.47,4.47,0,0,1-4.46,4.47h0v20.73h0a4.46,4.46,0,0,1,4.46,4.46h37.8A4.46,4.46,0,0,1,348.38,332.35Z" style="fill:#fff;opacity:0.6000000000000001"></path><path d="M303.91,332.35V311.62a4.47,4.47,0,0,0,4.46-4.47h-2.25a4.47,4.47,0,0,1-4.46,4.47v20.73a4.46,4.46,0,0,1,4.46,4.46h2.25A4.46,4.46,0,0,0,303.91,332.35Z" style="fill:#407BFF"></path><path d="M303.91,332.35V311.62a4.47,4.47,0,0,0,4.46-4.47h-2.25a4.47,4.47,0,0,1-4.46,4.47v20.73a4.46,4.46,0,0,1,4.46,4.46h2.25A4.46,4.46,0,0,0,303.91,332.35Z" style="fill:#fff;opacity:0.2"></path><path d="M320.27,322A2.28,2.28,0,1,1,318,319.7,2.29,2.29,0,0,1,320.27,322Z" style="fill:#407BFF"></path><path d="M332.25,322A2.28,2.28,0,1,1,330,319.7,2.29,2.29,0,0,1,332.25,322Z" style="fill:#407BFF"></path><polygon points="318.4 314.98 326.23 307.15 310.57 307.15 318.4 314.98" style="fill:#263238"></polygon><polygon points="318.4 314.98 326.23 307.15 310.57 307.15 318.4 314.98" style="fill:#fff;opacity:0.7000000000000001"></polygon><polygon points="326.04 312.98 331.87 307.15 320.22 307.15 326.04 312.98" style="fill:#263238"></polygon><polygon points="326.04 312.98 331.87 307.15 320.22 307.15 326.04 312.98" style="fill:#fff;opacity:0.8"></polygon><path d="M328,328.8h-8A2.83,2.83,0,0,1,317.2,326v-4.14a.85.85,0,0,1,.85-.85h0a.85.85,0,0,1,.85.85V326a1.14,1.14,0,0,0,1.13,1.14h8a1.14,1.14,0,0,0,1.13-1.14v-4.14A.85.85,0,0,1,330,321h0a.85.85,0,0,1,.85.85V326A2.83,2.83,0,0,1,328,328.8Z" style="fill:#263238"></path><path d="M348.38,368.48V347.75a4.47,4.47,0,0,1-4.46-4.47h-37.8a4.47,4.47,0,0,1-4.46,4.47h0v20.73h0a4.46,4.46,0,0,1,4.46,4.46h37.8A4.46,4.46,0,0,1,348.38,368.48Z" style="fill:#407BFF"></path><path d="M348.38,368.48V347.75a4.47,4.47,0,0,1-4.46-4.47h-37.8a4.47,4.47,0,0,1-4.46,4.47h0v20.73h0a4.46,4.46,0,0,1,4.46,4.46h37.8A4.46,4.46,0,0,1,348.38,368.48Z" style="fill:#fff;opacity:0.6000000000000001"></path><path d="M303.91,368.48V347.75a4.47,4.47,0,0,0,4.46-4.47h-2.25a4.47,4.47,0,0,1-4.46,4.47v20.73a4.46,4.46,0,0,1,4.46,4.46h2.25A4.46,4.46,0,0,0,303.91,368.48Z" style="fill:#407BFF"></path><path d="M303.91,368.48V347.75a4.47,4.47,0,0,0,4.46-4.47h-2.25a4.47,4.47,0,0,1-4.46,4.47v20.73a4.46,4.46,0,0,1,4.46,4.46h2.25A4.46,4.46,0,0,0,303.91,368.48Z" style="fill:#fff;opacity:0.2"></path><path d="M320.27,358.11a2.28,2.28,0,1,1-2.28-2.28A2.29,2.29,0,0,1,320.27,358.11Z" style="fill:#407BFF"></path><path d="M332.25,358.11a2.28,2.28,0,1,1-2.28-2.28A2.29,2.29,0,0,1,332.25,358.11Z" style="fill:#407BFF"></path><path d="M328,364.93h-8a2.83,2.83,0,0,1-2.83-2.83V358a.86.86,0,0,1,.85-.85h0a.86.86,0,0,1,.85.85v4.14a1.14,1.14,0,0,0,1.13,1.14h8a1.14,1.14,0,0,0,1.13-1.14V358a.86.86,0,0,1,.85-.85h0a.86.86,0,0,1,.85.85v4.14A2.83,2.83,0,0,1,328,364.93Z" style="fill:#263238"></path><path d="M348.38,404.61V383.88a4.47,4.47,0,0,1-4.46-4.47h-37.8a4.47,4.47,0,0,1-4.46,4.47h0v20.73h0a4.46,4.46,0,0,1,4.46,4.46h37.8A4.46,4.46,0,0,1,348.38,404.61Z" style="fill:#407BFF"></path><path d="M348.38,404.61V383.88a4.47,4.47,0,0,1-4.46-4.47h-37.8a4.47,4.47,0,0,1-4.46,4.47h0v20.73h0a4.46,4.46,0,0,1,4.46,4.46h37.8A4.46,4.46,0,0,1,348.38,404.61Z" style="fill:#fff;opacity:0.6000000000000001"></path><path d="M303.91,404.61V383.88a4.47,4.47,0,0,0,4.46-4.47h-2.25a4.47,4.47,0,0,1-4.46,4.47v20.73a4.46,4.46,0,0,1,4.46,4.46h2.25A4.46,4.46,0,0,0,303.91,404.61Z" style="fill:#407BFF"></path><path d="M303.91,404.61V383.88a4.47,4.47,0,0,0,4.46-4.47h-2.25a4.47,4.47,0,0,1-4.46,4.47v20.73a4.46,4.46,0,0,1,4.46,4.46h2.25A4.46,4.46,0,0,0,303.91,404.61Z" style="fill:#fff;opacity:0.2"></path><path d="M320.27,394.24A2.28,2.28,0,1,1,318,392,2.29,2.29,0,0,1,320.27,394.24Z" style="fill:#407BFF"></path><path d="M332.25,394.24A2.28,2.28,0,1,1,330,392,2.29,2.29,0,0,1,332.25,394.24Z" style="fill:#407BFF"></path><path d="M328,401.06h-8a2.83,2.83,0,0,1-2.83-2.83v-4.14a.85.85,0,0,1,.85-.85h0a.85.85,0,0,1,.85.85v4.14a1.14,1.14,0,0,0,1.13,1.14h8a1.14,1.14,0,0,0,1.13-1.14v-4.14a.85.85,0,0,1,.85-.85h0a.85.85,0,0,1,.85.85v4.14A2.83,2.83,0,0,1,328,401.06Z" style="fill:#263238"></path><polygon points="314.4 387.65 326.9 379.15 309.9 379.15 314.4 387.65" style="fill:#263238"></polygon><polygon points="314.4 387.65 326.9 379.15 309.9 379.15 314.4 387.65" style="fill:#fff;opacity:0.8"></polygon></g><g id="freepik--books-2--inject-45"><path d="M439.88,395.9H397.69v8.8H439.9A34.56,34.56,0,0,1,439.88,395.9Z" style="fill:#407BFF"></path><path d="M439.88,395.9H397.69v8.8H439.9A34.56,34.56,0,0,1,439.88,395.9Z" style="fill:#fff;opacity:0.7000000000000001"></path><path d="M405.38,405.17H392.11L392,405a6.76,6.76,0,0,1,0-9.56l.13-.14h13.27l-.79.79a5.84,5.84,0,0,0,0,8.26Z" style="fill:#407BFF"></path><g style="opacity:0.30000000000000004"><path d="M405.38,405.17H392.11L392,405a6.76,6.76,0,0,1,0-9.56l.13-.14h13.27l-.79.79a5.84,5.84,0,0,0,0,8.26Z"></path></g><path d="M440.32,405.17H404.5l0,0a7,7,0,0,1-2.08-4.64,6.74,6.74,0,0,1,2-5l.14-.14h35.82a.47.47,0,0,1,.46.46h0a.47.47,0,0,1-.46.47H404.89a5.83,5.83,0,0,0,0,8h35.43a.47.47,0,0,1,.46.46h0A.47.47,0,0,1,440.32,405.17Z" style="fill:#407BFF"></path><path d="M437,378.14H399v7.92h38A30.88,30.88,0,0,1,437,378.14Z" style="fill:#407BFF"></path><path d="M437,378.14H399v7.92h38A30.88,30.88,0,0,1,437,378.14Z" style="fill:#fff;opacity:0.8"></path><path d="M406,386.48H394l-.13-.12a6.1,6.1,0,0,1,0-8.61l.13-.12H406l-.71.71a5.25,5.25,0,0,0,0,7.43Z" style="fill:#407BFF"></path><g style="opacity:0.2"><path d="M406,386.48H394l-.13-.12a6.1,6.1,0,0,1,0-8.61l.13-.12H406l-.71.71a5.25,5.25,0,0,0,0,7.43Z" style="fill:#fff"></path></g><path d="M437.41,386.48H405.17l0,0a6.18,6.18,0,0,1-1.87-4.17,6,6,0,0,1,1.78-4.52l.12-.12h32.24a.41.41,0,0,1,.41.41h0a.41.41,0,0,1-.41.42H405.52a5.26,5.26,0,0,0,0,7.19h31.89a.41.41,0,0,1,.41.41h0A.41.41,0,0,1,437.41,386.48Z" style="fill:#407BFF"></path><g style="opacity:0.4"><path d="M437.41,386.48H405.17l0,0a6.18,6.18,0,0,1-1.87-4.17,6,6,0,0,1,1.78-4.52l.12-.12h32.24a.41.41,0,0,1,.41.41h0a.41.41,0,0,1-.41.42H405.52a5.26,5.26,0,0,0,0,7.19h31.89a.41.41,0,0,1,.41.41h0A.41.41,0,0,1,437.41,386.48Z" style="fill:#fff"></path></g><path d="M437,369.29H399v7.92h38A30.88,30.88,0,0,1,437,369.29Z" style="fill:#407BFF"></path><path d="M437,369.29H399v7.92h38A30.88,30.88,0,0,1,437,369.29Z" style="fill:#fff;opacity:0.8"></path><path d="M406,377.63H394l-.13-.13a6.08,6.08,0,0,1,0-8.6l.13-.13H406l-.71.72a5.25,5.25,0,0,0,0,7.43Z" style="fill:#407BFF"></path><g style="opacity:0.4"><path d="M406,377.63H394l-.13-.13a6.08,6.08,0,0,1,0-8.6l.13-.13H406l-.71.72a5.25,5.25,0,0,0,0,7.43Z" style="fill:#fff"></path></g><path d="M437.41,377.63H405.17l0,0a6.2,6.2,0,0,1-1.87-4.17,6,6,0,0,1,1.78-4.52l.12-.13h32.24a.41.41,0,0,1,.41.42h0a.41.41,0,0,1-.41.42H405.52a5.25,5.25,0,0,0,0,7.18h31.89a.41.41,0,0,1,.41.42h0A.41.41,0,0,1,437.41,377.63Z" style="fill:#407BFF"></path><g style="opacity:0.5"><path d="M437.41,377.63H405.17l0,0a6.2,6.2,0,0,1-1.87-4.17,6,6,0,0,1,1.78-4.52l.12-.13h32.24a.41.41,0,0,1,.41.42h0a.41.41,0,0,1-.41.42H405.52a5.25,5.25,0,0,0,0,7.18h31.89a.41.41,0,0,1,.41.42h0A.41.41,0,0,1,437.41,377.63Z" style="fill:#fff"></path></g><path d="M437,405.74H399v7.91h38A30.8,30.8,0,0,1,437,405.74Z" style="fill:#407BFF"></path><path d="M437,405.74H399v7.91h38A30.8,30.8,0,0,1,437,405.74Z" style="fill:#fff;opacity:0.8"></path><path d="M406,414.07H394l-.13-.12a6.1,6.1,0,0,1,0-8.61l.13-.12H406l-.71.71a5.25,5.25,0,0,0,0,7.43Z" style="fill:#263238"></path><path d="M437.41,414.07H405.17l0,0a6.22,6.22,0,0,1-1.87-4.18,6.06,6.06,0,0,1,1.78-4.52l.12-.12h32.24a.41.41,0,0,1,.41.42h0a.41.41,0,0,1-.41.41H405.52a5.26,5.26,0,0,0,0,7.19h31.89a.41.41,0,0,1,.41.41h0A.41.41,0,0,1,437.41,414.07Z" style="fill:#407BFF"></path><path d="M437,387H399v7.91h38A30.8,30.8,0,0,1,437,387Z" style="fill:#407BFF"></path><path d="M437,387H399v7.91h38A30.8,30.8,0,0,1,437,387Z" style="fill:#fff;opacity:0.7000000000000001"></path><path d="M406,395.33H394l-.13-.12a6.1,6.1,0,0,1,0-8.61l.13-.12H406l-.71.71a5.25,5.25,0,0,0,0,7.43Z" style="fill:#407BFF"></path><path d="M437.41,395.33H405.17l0,0a6.22,6.22,0,0,1-1.87-4.18,6.06,6.06,0,0,1,1.78-4.52l.12-.12h32.24a.41.41,0,0,1,.41.42h0a.41.41,0,0,1-.41.41H405.52a5.26,5.26,0,0,0,0,7.19h31.89a.41.41,0,0,1,.41.41h0A.41.41,0,0,1,437.41,395.33Z" style="fill:#407BFF"></path><g style="opacity:0.30000000000000004"><path d="M437.41,395.33H405.17l0,0a6.22,6.22,0,0,1-1.87-4.18,6.06,6.06,0,0,1,1.78-4.52l.12-.12h32.24a.41.41,0,0,1,.41.42h0a.41.41,0,0,1-.41.41H405.52a5.26,5.26,0,0,0,0,7.19h31.89a.41.41,0,0,1,.41.41h0A.41.41,0,0,1,437.41,395.33Z" style="fill:#fff"></path></g></g><g id="freepik--books-1--inject-45"><path d="M363,294.21h38.39v-8H363A31.58,31.58,0,0,1,363,294.21Z" style="fill:#407BFF"></path><path d="M363,294.21h38.39v-8H363A31.58,31.58,0,0,1,363,294.21Z" style="fill:#fff;opacity:0.7000000000000001"></path><path d="M394.43,285.78H406.5l.12.12a6.16,6.16,0,0,1,0,8.7l-.12.13H394.43l.72-.72a5.3,5.3,0,0,0,0-7.51Z" style="fill:#407BFF"></path><g style="opacity:0.30000000000000004"><path d="M394.43,285.78H406.5l.12.12a6.16,6.16,0,0,1,0,8.7l-.12.13H394.43l.72-.72a5.3,5.3,0,0,0,0-7.51Z"></path></g><path d="M362.65,285.78h32.58l0,0a6.38,6.38,0,0,1,1.89,4.22,6.12,6.12,0,0,1-1.8,4.57l-.13.13H362.65a.42.42,0,0,1-.42-.42h0a.42.42,0,0,1,.42-.42h32.23a5.31,5.31,0,0,0,0-7.27H362.65a.42.42,0,0,1-.42-.42h0A.42.42,0,0,1,362.65,285.78Z" style="fill:#407BFF"></path><path d="M364.06,269.2h34.55V262H364.05A28.44,28.44,0,0,1,364.06,269.2Z" style="fill:#407BFF"></path><path d="M364.06,269.2h34.55V262H364.05A28.44,28.44,0,0,1,364.06,269.2Z" style="fill:#fff;opacity:0.8"></path><path d="M392.31,261.62h10.86l.11.11a5.54,5.54,0,0,1,0,7.83l-.11.11H392.31L393,269a4.78,4.78,0,0,0,0-6.76Z" style="fill:#407BFF"></path><g style="opacity:0.2"><path d="M392.31,261.62h10.86l.11.11a5.54,5.54,0,0,1,0,7.83l-.11.11H392.31L393,269a4.78,4.78,0,0,0,0-6.76Z" style="fill:#fff"></path></g><path d="M363.7,261.62H393l0,0a5.68,5.68,0,0,1,1.7,3.8,5.45,5.45,0,0,1-1.62,4.11l-.11.11H363.7a.38.38,0,0,1-.37-.38h0a.38.38,0,0,1,.37-.37h29a4.76,4.76,0,0,0,0-6.54h-29a.38.38,0,0,1-.37-.38h0A.38.38,0,0,1,363.7,261.62Z" style="fill:#407BFF"></path><g style="opacity:0.4"><path d="M363.7,261.62H393l0,0a5.68,5.68,0,0,1,1.7,3.8,5.45,5.45,0,0,1-1.62,4.11l-.11.11H363.7a.38.38,0,0,1-.37-.38h0a.38.38,0,0,1,.37-.37h29a4.76,4.76,0,0,0,0-6.54h-29a.38.38,0,0,1-.37-.38h0A.38.38,0,0,1,363.7,261.62Z" style="fill:#fff"></path></g><path d="M364.06,277.26h34.55v-7.21H364.05A28.52,28.52,0,0,1,364.06,277.26Z" style="fill:#407BFF"></path><path d="M364.06,277.26h34.55v-7.21H364.05A28.52,28.52,0,0,1,364.06,277.26Z" style="fill:#fff;opacity:0.8"></path><path d="M392.31,269.67h10.86l.11.11a5.55,5.55,0,0,1,0,7.84l-.11.11H392.31l.65-.65a4.78,4.78,0,0,0,0-6.76Z" style="fill:#263238"></path><path d="M363.7,269.67H393l0,0a5.68,5.68,0,0,1,1.7,3.8,5.48,5.48,0,0,1-1.62,4.12l-.11.11H363.7a.38.38,0,0,1-.37-.38h0a.38.38,0,0,1,.37-.38h29a4.76,4.76,0,0,0,0-6.54h-29a.38.38,0,0,1-.37-.38h0A.38.38,0,0,1,363.7,269.67Z" style="fill:#407BFF"></path><path d="M362.84,285.31h34.55v-7.2H362.83A28,28,0,0,1,362.84,285.31Z" style="fill:#407BFF"></path><path d="M362.84,285.31h34.55v-7.2H362.83A28,28,0,0,1,362.84,285.31Z" style="fill:#fff;opacity:0.7000000000000001"></path><path d="M391.1,277.73H402l.12.11a5.54,5.54,0,0,1,0,7.83l-.12.11H391.1l.64-.65a4.78,4.78,0,0,0,0-6.76Z" style="fill:#407BFF"></path><path d="M362.49,277.73h29.33l0,0a5.69,5.69,0,0,1,1.7,3.8,5.52,5.52,0,0,1-1.62,4.11l-.11.11H362.49a.38.38,0,0,1-.38-.38h0a.38.38,0,0,1,.38-.38h29a4.78,4.78,0,0,0,0-6.53h-29a.38.38,0,0,1-.38-.38h0A.38.38,0,0,1,362.49,277.73Z" style="fill:#407BFF"></path><g style="opacity:0.30000000000000004"><path d="M362.49,277.73h29.33l0,0a5.69,5.69,0,0,1,1.7,3.8,5.52,5.52,0,0,1-1.62,4.11l-.11.11H362.49a.38.38,0,0,1-.38-.38h0a.38.38,0,0,1,.38-.38h29a4.78,4.78,0,0,0,0-6.53h-29a.38.38,0,0,1-.38-.38h0A.38.38,0,0,1,362.49,277.73Z" style="fill:#fff"></path></g><path d="M357.77,272.72v5.54a.54.54,0,0,1,0,1.07h-6.34v-7.68h6.34a.54.54,0,0,1,0,1.07Z" style="fill:#407BFF"></path><path d="M357.77,272.72v5.54a.54.54,0,0,1,0,1.07h-6.34v-7.68h6.34a.54.54,0,0,1,0,1.07Z" style="fill:#fff;isolation:isolate;opacity:0.30000000000000004"></path><rect x="352.84" y="272.73" width="4.93" height="5.53" style="fill:#407BFF"></rect><rect x="352.84" y="272.73" width="4.93" height="5.53" style="fill:#fff;isolation:isolate;opacity:0.6000000000000001"></rect><path d="M353.88,272.19H326.69c-1.18,0-2.13,1.5-2.13,3.3s.95,3.3,2.13,3.3h27.19Z" style="fill:#407BFF"></path><path d="M353.88,272.19H326.69c-1.18,0-2.13,1.5-2.13,3.3s.95,3.3,2.13,3.3h27.19Z" style="fill:#fff;isolation:isolate;opacity:0.9"></path><path d="M353.88,279.33c-5.59,0-21.31.1-26.9,0-3.83-.07-4-7.41-.28-7.67,2.62-.18,5.31,0,7.93,0h19.25a.53.53,0,0,1,.53.53.53.53,0,0,1-.53.53h-26c-1.22,0-2.1,0-2.57,1.46-.42,1.25-.28,3.81,1.4,4.08a2.71,2.71,0,0,0,.57,0h26.62a.54.54,0,0,1,0,1.07Z" style="fill:#407BFF"></path><g style="opacity:0.2"><path d="M353.88,279.33c-5.59,0-21.31.1-26.9,0-3.83-.07-4-7.41-.28-7.67,2.62-.18,5.31,0,7.93,0h19.25a.53.53,0,0,1,.53.53.53.53,0,0,1-.53.53h-26c-1.22,0-2.1,0-2.57,1.46-.42,1.25-.28,3.81,1.4,4.08a2.71,2.71,0,0,0,.57,0h26.62a.54.54,0,0,1,0,1.07Z" style="fill:#fff"></path></g><path d="M356.82,280.2v5.14a.48.48,0,0,1,.43.55.49.49,0,0,1-.43.43H351V279.2h5.87a.5.5,0,1,1,0,1Z" style="fill:#407BFF"></path><path d="M356.82,280.2v5.14a.48.48,0,0,1,.43.55.49.49,0,0,1-.43.43H351V279.2h5.87a.5.5,0,1,1,0,1Z" style="fill:#fff;isolation:isolate;opacity:0.30000000000000004"></path><rect x="352.26" y="280.21" width="4.57" height="5.13" style="fill:#407BFF"></rect><rect x="352.26" y="280.21" width="4.57" height="5.13" style="fill:#fff;isolation:isolate;opacity:0.6000000000000001"></rect><path d="M353.22,279.71H328c-1.09,0-2,1.37-2,3.06s.88,3.06,2,3.06h25.18Z" style="fill:#407BFF"></path><path d="M353.22,279.71H328c-1.09,0-2,1.37-2,3.06s.88,3.06,2,3.06h25.18Z" style="fill:#fff;isolation:isolate;opacity:0.9"></path><path d="M353.22,286.32c-5.18,0-19.73.09-24.91,0-3.55-.07-3.75-6.86-.26-7.1,2.42-.16,4.92,0,7.35,0h17.82a.49.49,0,0,1,0,1H329.13c-1.14,0-1.95,0-2.39,1.35-.38,1.16-.26,3.53,1.3,3.79a4.68,4.68,0,0,0,.53,0h24.65a.49.49,0,0,1,.43.55.51.51,0,0,1-.43.43Z" style="fill:#407BFF"></path><path d="M359.75,287.39v6.11a.59.59,0,0,1,0,1.17h-7v-8.44h7a.58.58,0,0,1,.51.65A.57.57,0,0,1,359.75,287.39Z" style="fill:#407BFF"></path><path d="M359.75,287.39v6.11a.59.59,0,0,1,0,1.17h-7v-8.44h7a.58.58,0,0,1,.51.65A.57.57,0,0,1,359.75,287.39Z" style="fill:#fff;isolation:isolate;opacity:0.30000000000000004"></path><rect x="354.32" y="287.41" width="5.43" height="6.1" style="fill:#407BFF"></rect><rect x="354.32" y="287.41" width="5.43" height="6.1" style="fill:#fff;isolation:isolate;opacity:0.6000000000000001"></rect><path d="M355.46,286.81h-30c-1.29,0-2.34,1.63-2.34,3.64s1.05,3.64,2.34,3.64h30Z" style="fill:#407BFF"></path><path d="M355.46,286.81h-30c-1.29,0-2.34,1.63-2.34,3.64s1.05,3.64,2.34,3.64h30Z" style="fill:#fff;isolation:isolate;opacity:0.9"></path><path d="M355.46,294.68c-6.16,0-23.48.11-29.64,0-4.22-.08-4.45-8.17-.31-8.45,2.89-.2,5.86,0,8.74,0h21.21a.59.59,0,0,1,0,1.17H326.79c-1.35,0-2.31,0-2.84,1.61-.45,1.38-.31,4.19,1.54,4.5h30a.59.59,0,0,1,0,1.17Z" style="fill:#407BFF"></path><g style="opacity:0.2"><path d="M355.46,294.68c-6.16,0-23.48.11-29.64,0-4.22-.08-4.45-8.17-.31-8.45,2.89-.2,5.86,0,8.74,0h21.21a.59.59,0,0,1,0,1.17H326.79c-1.35,0-2.31,0-2.84,1.61-.45,1.38-.31,4.19,1.54,4.5h30a.59.59,0,0,1,0,1.17Z"></path></g></g><g id="freepik--Typewriter--inject-45"><path d="M311.9,276.61c-1.29-8.74,1.14-15.56,12.19-24.3H284.64c-11.06,8.74-13.49,15.56-12.19,24.3Z" style="fill:#407BFF"></path><g style="opacity:0.7000000000000001"><path d="M311.9,276.61c-1.29-8.74,1.14-15.56,12.19-24.3H284.64c-11.06,8.74-13.49,15.56-12.19,24.3Z" style="fill:#fff"></path></g><polygon points="309.19 274.07 287.07 288.4 287.07 294.83 313.99 294.83 313.99 274.07 309.19 274.07" style="fill:#407BFF"></polygon><polygon points="309.19 274.07 287.07 288.4 287.07 294.83 313.99 294.83 313.99 274.07 309.19 274.07" style="opacity:0.2"></polygon><rect x="247.46" y="288.4" width="39.61" height="6.44" style="fill:#407BFF"></rect><rect x="247.46" y="288.4" width="39.61" height="6.44" style="fill:#fff;opacity:0.1"></rect><polygon points="247.46 288.4 269.58 274.07 309.19 274.07 287.07 288.4 247.46 288.4" style="fill:#407BFF"></polygon><polygon points="247.46 288.4 269.58 274.07 309.19 274.07 287.07 288.4 247.46 288.4" style="fill:#fff;opacity:0.5"></polygon><path d="M272.61,275.36c0-.4-.93-.72-2.08-.72s-2.09.32-2.09.72v1.23c0,.39.94.71,2.09.71s2.08-.32,2.08-.71Z" style="fill:#263238"></path><ellipse cx="270.53" cy="275.36" rx="2.08" ry="0.72" style="fill:#407BFF"></ellipse><path d="M278.87,275.36c0-.4-.94-.72-2.09-.72s-2.08.32-2.08.72v1.23c0,.39.93.71,2.08.71s2.09-.32,2.09-.71Z" style="fill:#263238"></path><ellipse cx="276.78" cy="275.36" rx="2.08" ry="0.72" style="fill:#407BFF"></ellipse><path d="M285.12,275.36c0-.4-.93-.72-2.08-.72s-2.09.32-2.09.72v1.23c0,.39.94.71,2.09.71s2.08-.32,2.08-.71Z" style="fill:#263238"></path><path d="M285.12,275.36c0,.39-.93.72-2.08.72s-2.09-.33-2.09-.72.94-.72,2.09-.72S285.12,275,285.12,275.36Z" style="fill:#407BFF"></path><path d="M291.38,275.36c0-.4-.94-.72-2.09-.72s-2.08.32-2.08.72v1.23c0,.39.93.71,2.08.71s2.09-.32,2.09-.71Z" style="fill:#263238"></path><ellipse cx="289.29" cy="275.36" rx="2.08" ry="0.72" style="fill:#407BFF"></ellipse><path d="M297.63,275.36c0-.4-.93-.72-2.08-.72s-2.09.32-2.09.72v1.23c0,.39.94.71,2.09.71s2.08-.32,2.08-.71Z" style="fill:#263238"></path><ellipse cx="295.55" cy="275.36" rx="2.08" ry="0.72" style="fill:#407BFF"></ellipse><path d="M303.89,275.36c0-.4-.94-.72-2.09-.72s-2.08.32-2.08.72v1.23c0,.39.93.71,2.08.71s2.09-.32,2.09-.71Z" style="fill:#263238"></path><ellipse cx="301.8" cy="275.36" rx="2.08" ry="0.72" style="fill:#407BFF"></ellipse><path d="M266.36,279.29c0-.4-.93-.72-2.09-.72s-2.08.32-2.08.72v1.23c0,.39.93.71,2.08.71s2.09-.32,2.09-.71Z" style="fill:#263238"></path><path d="M266.36,279.29c0,.39-.93.71-2.09.71s-2.08-.32-2.08-.71.93-.72,2.08-.72S266.36,278.89,266.36,279.29Z" style="fill:#407BFF"></path><path d="M272.61,279.29c0-.4-.93-.72-2.08-.72s-2.09.32-2.09.72v1.23c0,.39.94.71,2.09.71s2.08-.32,2.08-.71Z" style="fill:#263238"></path><path d="M272.61,279.29c0,.39-.93.71-2.08.71s-2.09-.32-2.09-.71.94-.72,2.09-.72S272.61,278.89,272.61,279.29Z" style="fill:#407BFF"></path><path d="M278.87,279.29c0-.4-.94-.72-2.09-.72s-2.08.32-2.08.72v1.23c0,.39.93.71,2.08.71s2.09-.32,2.09-.71Z" style="fill:#263238"></path><path d="M278.87,279.29c0,.39-.94.71-2.09.71s-2.08-.32-2.08-.71.93-.72,2.08-.72S278.87,278.89,278.87,279.29Z" style="fill:#407BFF"></path><path d="M285.12,279.29c0-.4-.93-.72-2.08-.72s-2.09.32-2.09.72v1.23c0,.39.94.71,2.09.71s2.08-.32,2.08-.71Z" style="fill:#263238"></path><path d="M285.12,279.29c0,.39-.93.71-2.08.71s-2.09-.32-2.09-.71.94-.72,2.09-.72S285.12,278.89,285.12,279.29Z" style="fill:#407BFF"></path><path d="M291.38,279.29c0-.4-.94-.72-2.09-.72s-2.08.32-2.08.72v1.23c0,.39.93.71,2.08.71s2.09-.32,2.09-.71Z" style="fill:#263238"></path><path d="M291.38,279.29c0,.39-.94.71-2.09.71s-2.08-.32-2.08-.71.93-.72,2.08-.72S291.38,278.89,291.38,279.29Z" style="fill:#407BFF"></path><path d="M297.63,279.29c0-.4-.93-.72-2.08-.72s-2.09.32-2.09.72v1.23c0,.39.94.71,2.09.71s2.08-.32,2.08-.71Z" style="fill:#263238"></path><path d="M297.63,279.29c0,.39-.93.71-2.08.71s-2.09-.32-2.09-.71.94-.72,2.09-.72S297.63,278.89,297.63,279.29Z" style="fill:#407BFF"></path><path d="M259.79,283.22c0-.4-.94-.72-2.09-.72s-2.08.32-2.08.72v1.22c0,.4.93.72,2.08.72s2.09-.32,2.09-.72Z" style="fill:#263238"></path><path d="M259.79,283.22c0,.39-.94.71-2.09.71s-2.08-.32-2.08-.71.93-.72,2.08-.72S259.79,282.82,259.79,283.22Z" style="fill:#407BFF"></path><path d="M266,283.22c0-.4-.93-.72-2.08-.72s-2.09.32-2.09.72v1.22c0,.4.93.72,2.09.72s2.08-.32,2.08-.72Z" style="fill:#263238"></path><path d="M266,283.22c0,.39-.93.71-2.08.71s-2.09-.32-2.09-.71.93-.72,2.09-.72S266,282.82,266,283.22Z" style="fill:#407BFF"></path><path d="M272.29,283.22c0-.4-.93-.72-2.08-.72s-2.08.32-2.08.72v1.22c0,.4.93.72,2.08.72s2.08-.32,2.08-.72Z" style="fill:#263238"></path><path d="M272.29,283.22c0,.39-.93.71-2.08.71s-2.08-.32-2.08-.71.93-.72,2.08-.72S272.29,282.82,272.29,283.22Z" style="fill:#407BFF"></path><path d="M278.55,283.22c0-.4-.93-.72-2.09-.72s-2.08.32-2.08.72v1.22c0,.4.93.72,2.08.72s2.09-.32,2.09-.72Z" style="fill:#263238"></path><path d="M278.55,283.22c0,.39-.93.71-2.09.71s-2.08-.32-2.08-.71.93-.72,2.08-.72S278.55,282.82,278.55,283.22Z" style="fill:#407BFF"></path><path d="M284.8,283.22c0-.4-.93-.72-2.08-.72s-2.09.32-2.09.72v1.22c0,.4.94.72,2.09.72s2.08-.32,2.08-.72Z" style="fill:#263238"></path><path d="M284.8,283.22c0,.39-.93.71-2.08.71s-2.09-.32-2.09-.71.94-.72,2.09-.72S284.8,282.82,284.8,283.22Z" style="fill:#407BFF"></path><path d="M291.06,283.22c0-.4-.93-.72-2.09-.72s-2.08.32-2.08.72v1.22c0,.4.93.72,2.08.72s2.09-.32,2.09-.72Z" style="fill:#263238"></path><path d="M291.06,283.22c0,.39-.93.71-2.09.71s-2.08-.32-2.08-.71.93-.72,2.08-.72S291.06,282.82,291.06,283.22Z" style="fill:#407BFF"></path><path d="M313.57,280.48a4.56,4.56,0,0,0,0-9.12h-1.9a4.56,4.56,0,0,0,0,9.12Z" style="fill:#263238"></path><path d="M318.13,275.92a4.56,4.56,0,1,1-4.56-4.56A4.56,4.56,0,0,1,318.13,275.92Z" style="fill:#263238"></path><path d="M318.13,275.92a4.56,4.56,0,1,1-4.56-4.56A4.56,4.56,0,0,1,318.13,275.92Z" style="fill:#fff;opacity:0.5"></path></g><g id="freepik--Character--inject-45"><path d="M230.44,222.88a2.72,2.72,0,0,1-.69-.09,2.53,2.53,0,0,1-1.78-1.4c-.86-1.83.43-4.62.49-4.73l.13-.29h.32c4.72,0,4.76.1,4.94.39.26.44-.2,3.49-1.32,5A2.57,2.57,0,0,1,230.44,222.88Zm-1.2-5.51c-.35.86-.85,2.57-.36,3.6a1.57,1.57,0,0,0,1.12.85,1.38,1.38,0,0,0,1.35-.28c1-.86,1.47-3.14,1.56-4.09C232.17,217.41,230.69,217.38,229.24,217.37Z" style="fill:#407BFF"></path><polygon points="255.97 388.76 255 406.68 248.5 407.18 246.79 388.87 255.97 388.76" style="fill:#eec1bb"></polygon><path d="M256.3,406.61a.17.17,0,0,1-.14-.13.18.18,0,0,1,.08-.18c.11-.06,2.58-1.49,3.76-1.18a.91.91,0,0,1,.53.39.62.62,0,0,1,0,.73,3,3,0,0,1-2.08.56A11.94,11.94,0,0,1,256.3,406.61Zm.54-.23c1.32.16,3.11.13,3.44-.33a.48.48,0,0,0,0-.37.46.46,0,0,0-.33-.23h-.32A7.93,7.93,0,0,0,256.84,406.38Z" style="fill:#407BFF"></path><path d="M256.17,406.6a.18.18,0,0,1-.08-.15,4.86,4.86,0,0,1,1.09-2.75,1.23,1.23,0,0,1,.93-.29c.46,0,.61.27.63.46.15.8-1.54,2.35-2.38,2.73h-.07A.13.13,0,0,1,256.17,406.6Zm1.83-2.87a.9.9,0,0,0-.58.21,4.1,4.1,0,0,0-.93,2.18c.88-.52,2-1.73,1.94-2.22,0,0,0-.16-.33-.18Z" style="fill:#407BFF"></path><path d="M255.57,405.63h-7.4a.62.62,0,0,0-.6.49l-1.35,6.31a1,1,0,0,0,.71,1.22l.07,0h.22c2.79-.07,4.89-.18,8.36-.2,4.1,0,3.06.47,7.88.5,2.91,0,3.41-3.28,2.18-3.44-5.64-.67-6.24-2.36-8.43-4.36A2.48,2.48,0,0,0,255.57,405.63Z" style="fill:#263238"></path><polygon points="255.32 400.73 247.9 400.75 247.22 393.52 255.72 393.42 255.32 400.73" style="isolation:isolate;opacity:0.1"></polygon><path d="M186.17,309.79s-3.79,18.82,12,22.33,45.13-.3,45.13-.3-3.35,10.22,4,65.39h8.75s8.14-62,2.85-71.68S221.72,311.26,186.17,309.79Z" style="fill:#577afa"></path><path d="M186.17,309.79s-3.79,18.82,12,22.33,45.13-.3,45.13-.3-3.35,10.22,4,65.39h8.75s8.14-62,2.85-71.68S221.72,311.26,186.17,309.79Z" style="fill:#263238"></path><path d="M258.17,324.54a7.27,7.27,0,0,1,.67,1c2.68,4.9,1.91,23.28.49,40.2-6.55-20.59-6.16-25.76-6.16-25.76s-4.32-.28-10.61-.61c.16-5.8.72-7.52.72-7.52S253.29,322.23,258.17,324.54Z" style="isolation:isolate;opacity:0.6000000000000001"></path><polygon points="256.89 394.8 256.4 398.27 246.79 398.29 246.32 394.96 256.89 394.8" style="fill:#407BFF"></polygon><polygon points="256.89 394.8 256.4 398.27 246.79 398.29 246.32 394.96 256.89 394.8" style="fill:#fff;isolation:isolate;opacity:0.30000000000000004"></polygon><polygon points="281.24 385.43 284 403.43 277.37 404.7 271.51 387.93 281.24 385.43" style="fill:#eec1bb"></polygon><path d="M285.23,403.31a.21.21,0,0,1-.14-.16.21.21,0,0,1,.08-.17c.13-.06,3.07-1.45,4.4-1a1,1,0,0,1,.58.48.68.68,0,0,1,0,.81,3.62,3.62,0,0,1-2.43.45A14.06,14.06,0,0,1,285.23,403.31Zm.64-.21c1.51.28,3.56.4,4-.09.06-.06.12-.17,0-.41a.51.51,0,0,0-.36-.28,1,1,0,0,0-.36-.07A9.15,9.15,0,0,0,285.87,403.1Z" style="fill:#407BFF"></path><path d="M285.17,403.29a.18.18,0,0,1-.07-.17,5.32,5.32,0,0,1,1.47-3,1.44,1.44,0,0,1,1.1-.25c.52.09.67.36.68.57.11.9-2,2.48-3,2.84h-.08A.16.16,0,0,1,285.17,403.29Zm2.34-3a1,1,0,0,0-.68.19,4.47,4.47,0,0,0-1.25,2.34c1-.51,2.43-1.76,2.41-2.3,0,0,0-.19-.37-.24Z" style="fill:#407BFF"></path><path d="M284.48,402.15l-8.88-.58a.72.72,0,0,0-.73.5l-2.09,6.9a1.16,1.16,0,0,0,.79,1.44h.25c3.21.16,6.06.17,10,.44,4.7.31,3.47.77,9,1.21,3.33.26,4.19-3.37,2.79-3.64-6.41-1.21-6.95-3.15-9.28-5.56A3,3,0,0,0,284.48,402.15Z" style="fill:#263238"></path><polygon points="272.79 391.61 281.67 388.28 283.01 397.01 275.36 398.96 272.79 391.61" style="isolation:isolate;opacity:0.1"></polygon><path d="M191,311s-2,21,14.17,20.68,49.73,1.8,49.73,1.8S254,344.18,274.28,396l8.49-2.07s-6.86-62.18-14.29-70.3S225.89,303.9,191,311Z" style="fill:#263238"></path><polygon points="283.06 391.36 283.42 394.85 274.09 397.15 272.83 394.03 283.06 391.36" style="fill:#407BFF"></polygon><polygon points="283.06 391.36 283.42 394.85 274.09 397.15 272.83 394.03 283.06 391.36" style="fill:#fff;isolation:isolate;opacity:0.30000000000000004"></polygon><path d="M228.89,219.79l3.08,4.32a4,4,0,0,1-3.54.53Z" style="fill:#d58745"></path><path d="M230.57,219.08c0,.58-.23,1.06-.61,1.09s-.74-.45-.76-1,.23-1.06.61-1.08S230.53,218.51,230.57,219.08Z" style="fill:#263238"></path><path d="M208.17,216.65c.15,7.67,0,10.92,3.74,15,5.74,4.25,15,4.3,17.11-3.27,1.93-6.8,1.37-18.17-6-21.57a10.47,10.47,0,0,0-14.85,9.84Z" style="fill:#eec1bb"></path><path d="M219.88,234.51v-.38c.08-.83.48-1.1,1.3-.92l3.55.38A10.11,10.11,0,0,1,219.88,234.51Z" style="fill:#263238;isolation:isolate;opacity:0.2"></path><path d="M228.36,216.58a.3.3,0,0,0,.26-.12,2.4,2.4,0,0,1,1.93-1,.3.3,0,0,0,.32-.28h0a.31.31,0,0,0-.28-.32,3,3,0,0,0-2.45,1.22.31.31,0,0,0,.06.43h0A.33.33,0,0,0,228.36,216.58Z" style="fill:#263238"></path><polygon points="220.06 232.56 217.98 244.07 207.38 242.66 210.81 230.81 220.06 232.56" style="fill:#eec1bb"></polygon><path d="M219.81,239.18l3.59-2.07s-11.47-3.74-16.4-2.31-2.79,3.71-2.79,3.71Z" style="fill:#407BFF"></path><path d="M219.81,239.18l3.59-2.07s-11.47-3.74-16.4-2.31-2.79,3.71-2.79,3.71Z" style="fill:#fff;isolation:isolate;opacity:0.5"></path><path d="M204.17,238.51l15.6.67,2-1.14c-11-3.3-16.18-1.54-18-.5A2.13,2.13,0,0,0,204.17,238.51Z" style="isolation:isolate;opacity:0.2"></path><path d="M206.81,255.32s5,19.08,7,20.94c1.24,1.19,23-1.33,23-1.33l6.06-2.13a3,3,0,0,1,3,.56c1.84,1.57,4.89,4.42,5,6.1a3,3,0,0,1-1.49,2.16c-1.25.35-4.72-2.13-4.72-2.13l-7.9.69s-19.64,5.9-25.39,5.34c-6.68-.65-12.82-24.72-12.82-24.72Z" style="fill:#e4897b"></path><path d="M206.81,255.32s5,19.08,7,20.94c1.24,1.19,23-1.33,23-1.33l6.06-2.13a3,3,0,0,1,3,.56c1.84,1.57,4.89,4.42,5,6.1a3,3,0,0,1-1.49,2.16c-1.25.35-4.72-2.13-4.72-2.13l-7.9.69s-19.64,5.9-25.39,5.34c-6.68-.65-12.82-24.72-12.82-24.72Z" style="fill:#eec1bb"></path><path d="M206.81,255.32s5,19.08,7,20.94c1.24,1.19,23-1.33,23-1.33l6.06-2.13a3,3,0,0,1,3,.56c1.84,1.57,4.89,4.42,5,6.1a3,3,0,0,1-1.49,2.16c-1.25.35-4.72-2.13-4.72-2.13l-7.9.69s-19.64,5.9-25.39,5.34c-6.68-.65-12.82-24.72-12.82-24.72Z" style="isolation:isolate;opacity:0.1"></path><path d="M199.17,241.27s5.67.67,9.88,19.53a25.36,25.36,0,0,0-9.43,5.28s-3.37-8.6-3.7-13.3A19.9,19.9,0,0,1,199.17,241.27Z" style="fill:#577afa"></path><path d="M199.17,241.27s5.67.67,9.88,19.53a25.36,25.36,0,0,0-9.43,5.28s-3.37-8.6-3.7-13.3A19.9,19.9,0,0,1,199.17,241.27Z" style="isolation:isolate;opacity:0.30000000000000004"></path><path d="M225,246.6l3.44,9.35c-.46,3.51-1,7.64-1.52,12.09a40.6,40.6,0,0,1-3.09-21.38Z" style="isolation:isolate;opacity:0.2"></path><path d="M235.77,252.31s6.91,11.1,9.43,12.4c1.61.84,18.43-3.32,18.43-3.32s4.8-4.93,6.94-5c2.53-.08,7.72,3,8.58,5.41a3.07,3.07,0,0,1-.86,2.62c-1.15.72-4.05-.91-5.4-.75-2.07.24-5.85,2.23-7.77,3.05-6.22,2.63-13.66,6.93-19.63,8.07-6.94,1.32-16.48-14.48-16.48-14.48Z" style="fill:#eec1bb"></path><polygon points="221.54 218.14 221.56 217.14 232.87 216.35 232.85 217.35 221.54 218.14" style="fill:#407BFF"></polygon><path d="M222.31,224.84c2,9.64-9.54,9.64-12.38,9-9-1.34-9.6-7-10.93-8.27s-4.6-8,3.91-15.83c2.18-2,5-6.15,7.22-7.59,3.06-1.94,7.66-1,8.94,1.35,4.33-2.58,8.94-.53,10.41,2.34,1.18,2.3,1.39,5-.28,6.75a19.59,19.59,0,0,1-2,2,9.26,9.26,0,0,0-2.92,5.57c-.24,1.6-3.55-.6-4.17.9C219,220.57,221.32,220.09,222.31,224.84Z" style="fill:#263238"></path><path d="M223.93,218.9a5.86,5.86,0,0,1-.15,4.52c-.87,1.88-1.9,1.44-3-.19-1-1.48-1.71-4.24-.19-5.6S223.23,217.11,223.93,218.9Z" style="fill:#eec1bb"></path><path d="M230,244.51s-.58,8.45-3.07,23.53c-.62,3.79-4.91,4.15-4.61,14.46.22,7.77,2.61,20.3,2.42,26.29a313.54,313.54,0,0,1-39.38,2.82s-3.63-69.29,18.86-73.08C225.17,235,230,244.51,230,244.51Z" style="fill:#407BFF"></path><path d="M230,244.51s-.58,8.45-3.07,23.53c-.62,3.79-4.91,4.15-4.61,14.46.22,7.77,2.61,20.3,2.42,26.29a313.54,313.54,0,0,1-39.38,2.82s-3.63-69.29,18.86-73.08C225.17,235,230,244.51,230,244.51Z" style="isolation:isolate;opacity:0.4"></path><path d="M223.23,248.6c.24.54-1.93,15.21,4,16.39l2.27-10.66Z" style="fill:#263238;isolation:isolate;opacity:0.2"></path><path d="M224.32,241.28s8.59-3.56,17,16.78c0,0-4.48.18-10.36,7.54,0,0-4.76-7.09-6.49-11.74A21,21,0,0,1,224.32,241.28Z" style="fill:#407BFF"></path><path d="M224.32,241.28s8.59-3.56,17,16.78c0,0-4.48.18-10.36,7.54,0,0-4.76-7.09-6.49-11.74A21,21,0,0,1,224.32,241.28Z" style="isolation:isolate;opacity:0.4"></path><path d="M214.64,347.64a2.38,2.38,0,0,0-1.57-1.69l-.08-.64a1.72,1.72,0,0,0,1.15-1.69c-.14-1.17-1.76-2.12-3.62-2.12s-3.25.95-3.11,2.12a2.39,2.39,0,0,0,1.57,1.69l.08.64a1.71,1.71,0,0,0-1.15,1.69,2,2,0,0,0,.81,1.25,2.93,2.93,0,0,1,1.14,2.21c.18,5.14.77,12.16,1.72,19.91s2.1,14.86,3.19,20a2.35,2.35,0,0,1-.6,2.23,1.45,1.45,0,0,0-.51,1.25,2.38,2.38,0,0,0,1.57,1.69l.08.64a1.73,1.73,0,0,0-1.15,1.69,1.63,1.63,0,0,0,.38.85,4.74,4.74,0,0,1,1.1,2.13,93,93,0,0,0,2.87,12.81h1.89a85,85,0,0,0-.27-12.81,3.67,3.67,0,0,1,.57-2.13,1.33,1.33,0,0,0,.18-.85,2.37,2.37,0,0,0-1.57-1.69l-.07-.64a1.72,1.72,0,0,0,1.15-1.69,1.93,1.93,0,0,0-.82-1.25,2.94,2.94,0,0,1-1.14-2.23c-.18-5.15-.77-12.21-1.73-20s-2.09-14.77-3.17-19.91a2.33,2.33,0,0,1,.6-2.21A1.48,1.48,0,0,0,214.64,347.64Z" style="fill:#407BFF"></path><path d="M167.27,347.64a2.38,2.38,0,0,1,1.57-1.69l.08-.64a1.72,1.72,0,0,1-1.15-1.69c.14-1.17,1.76-2.12,3.62-2.12s3.25.95,3.11,2.12a2.39,2.39,0,0,1-1.57,1.69l-.08.64a1.72,1.72,0,0,1,1.15,1.69,2,2,0,0,1-.81,1.25,2.93,2.93,0,0,0-1.14,2.21c-.18,5.14-.77,12.16-1.72,19.91s-2.1,14.86-3.19,20a2.35,2.35,0,0,0,.6,2.23,1.45,1.45,0,0,1,.51,1.25,2.38,2.38,0,0,1-1.57,1.69l-.08.64a1.73,1.73,0,0,1,1.15,1.69,1.63,1.63,0,0,1-.38.85,4.64,4.64,0,0,0-1.1,2.13,93,93,0,0,1-2.87,12.81h-1.9a86.79,86.79,0,0,1,.28-12.81,3.68,3.68,0,0,0-.58-2.13,1.4,1.4,0,0,1-.18-.85,2.41,2.41,0,0,1,1.57-1.69l.08-.64a1.72,1.72,0,0,1-1.15-1.69,1.93,1.93,0,0,1,.82-1.25,3,3,0,0,0,1.14-2.23c.18-5.15.77-12.21,1.72-20s2.09-14.77,3.18-19.91a2.36,2.36,0,0,0-.6-2.21A1.45,1.45,0,0,1,167.27,347.64Z" style="fill:#407BFF"></path><g style="opacity:0.30000000000000004"><path d="M214.64,347.64a2.38,2.38,0,0,0-1.57-1.69l-.08-.64a1.72,1.72,0,0,0,1.15-1.69c-.14-1.17-1.76-2.12-3.62-2.12s-3.25.95-3.11,2.12a2.39,2.39,0,0,0,1.57,1.69l.08.64a1.71,1.71,0,0,0-1.15,1.69,2,2,0,0,0,.81,1.25,2.93,2.93,0,0,1,1.14,2.21c.18,5.14.77,12.16,1.72,19.91s2.1,14.86,3.19,20a2.35,2.35,0,0,1-.6,2.23,1.45,1.45,0,0,0-.51,1.25,2.38,2.38,0,0,0,1.57,1.69l.08.64a1.73,1.73,0,0,0-1.15,1.69,1.63,1.63,0,0,0,.38.85,4.74,4.74,0,0,1,1.1,2.13,93,93,0,0,0,2.87,12.81h1.89a85,85,0,0,0-.27-12.81,3.67,3.67,0,0,1,.57-2.13,1.33,1.33,0,0,0,.18-.85,2.37,2.37,0,0,0-1.57-1.69l-.07-.64a1.72,1.72,0,0,0,1.15-1.69,1.93,1.93,0,0,0-.82-1.25,2.94,2.94,0,0,1-1.14-2.23c-.18-5.15-.77-12.21-1.73-20s-2.09-14.77-3.17-19.91a2.33,2.33,0,0,1,.6-2.21A1.48,1.48,0,0,0,214.64,347.64Z"></path><path d="M167.27,347.64a2.38,2.38,0,0,1,1.57-1.69l.08-.64a1.72,1.72,0,0,1-1.15-1.69c.14-1.17,1.76-2.12,3.62-2.12s3.25.95,3.11,2.12a2.39,2.39,0,0,1-1.57,1.69l-.08.64a1.72,1.72,0,0,1,1.15,1.69,2,2,0,0,1-.81,1.25,2.93,2.93,0,0,0-1.14,2.21c-.18,5.14-.77,12.16-1.72,19.91s-2.1,14.86-3.19,20a2.35,2.35,0,0,0,.6,2.23,1.45,1.45,0,0,1,.51,1.25,2.38,2.38,0,0,1-1.57,1.69l-.08.64a1.73,1.73,0,0,1,1.15,1.69,1.63,1.63,0,0,1-.38.85,4.64,4.64,0,0,0-1.1,2.13,93,93,0,0,1-2.87,12.81h-1.9a86.79,86.79,0,0,1,.28-12.81,3.68,3.68,0,0,0-.58-2.13,1.4,1.4,0,0,1-.18-.85,2.41,2.41,0,0,1,1.57-1.69l.08-.64a1.72,1.72,0,0,1-1.15-1.69,1.93,1.93,0,0,1,.82-1.25,3,3,0,0,0,1.14-2.23c.18-5.15.77-12.21,1.72-20s2.09-14.77,3.18-19.91a2.36,2.36,0,0,0-.6-2.21A1.45,1.45,0,0,1,167.27,347.64Z"></path></g><path d="M163.24,332.82a100.57,100.57,0,0,1,22.11-3c7.69-.19,36.35,0,43.16,0a99.29,99.29,0,0,1,24.63,3.07c5.06,1.29,3.49,8.59-1.08,8.65H164.64C159.82,341.7,158.07,334.14,163.24,332.82Z" style="fill:#407BFF"></path><path d="M163.24,332.82a100.57,100.57,0,0,1,22.11-3c7.69-.19,36.35,0,43.16,0a99.29,99.29,0,0,1,24.63,3.07c5.06,1.29,3.49,8.59-1.08,8.65H164.64C159.82,341.7,158.07,334.14,163.24,332.82Z" style="opacity:0.30000000000000004"></path><path d="M250.74,341.34a90.59,90.59,0,0,0-44.56,0c-5.51,1.4-7.85-7.11-2.34-8.52a100.14,100.14,0,0,1,49.25,0c5.5,1.41,3.17,9.93-2.35,8.52Z" style="fill:#407BFF"></path><path d="M247.57,347.64A2.36,2.36,0,0,0,246,346l-.08-.64a1.74,1.74,0,0,0,1.16-1.69c-.15-1.17-1.77-2.12-3.63-2.12s-3.24.95-3.1,2.12a2.37,2.37,0,0,0,1.57,1.69l.08.64a1.73,1.73,0,0,0-1.16,1.69,1.93,1.93,0,0,0,.82,1.25,3,3,0,0,1,1.14,2.21c.18,5.14.76,12.16,1.71,19.91s2.11,14.86,3.2,20a2.37,2.37,0,0,1-.6,2.23,1.43,1.43,0,0,0-.51,1.25,2.36,2.36,0,0,0,1.57,1.69l.07.64a1.75,1.75,0,0,0-1.15,1.69,1.65,1.65,0,0,0,.39.85,4.62,4.62,0,0,1,1.09,2.13,94.22,94.22,0,0,0,2.88,12.81h1.89a87.86,87.86,0,0,0-.27-12.81,3.67,3.67,0,0,1,.57-2.13,1.33,1.33,0,0,0,.18-.85,2.41,2.41,0,0,0-1.57-1.69l-.08-.64a1.73,1.73,0,0,0,1.16-1.69,1.93,1.93,0,0,0-.82-1.25,3,3,0,0,1-1.15-2.23c-.18-5.15-.76-12.21-1.72-20s-2.09-14.77-3.17-19.91a2.33,2.33,0,0,1,.59-2.21A1.43,1.43,0,0,0,247.57,347.64Z" style="fill:#407BFF"></path><path d="M200.21,347.64a2.36,2.36,0,0,1,1.57-1.69l.08-.64a1.74,1.74,0,0,1-1.16-1.69c.15-1.17,1.77-2.12,3.63-2.12s3.24.95,3.1,2.12a2.37,2.37,0,0,1-1.57,1.69l-.08.64a1.73,1.73,0,0,1,1.16,1.69,1.93,1.93,0,0,1-.82,1.25A2.93,2.93,0,0,0,205,351.1c-.18,5.14-.76,12.16-1.71,19.91s-2.11,14.86-3.2,20a2.37,2.37,0,0,0,.6,2.23,1.43,1.43,0,0,1,.51,1.25,2.36,2.36,0,0,1-1.57,1.69l-.08.64a1.75,1.75,0,0,1,1.16,1.69,1.65,1.65,0,0,1-.39.85,4.62,4.62,0,0,0-1.09,2.13,94.22,94.22,0,0,1-2.88,12.81h-1.89a87.86,87.86,0,0,1,.27-12.81,3.67,3.67,0,0,0-.57-2.13,1.33,1.33,0,0,1-.18-.85,2.41,2.41,0,0,1,1.57-1.69l.08-.64a1.73,1.73,0,0,1-1.16-1.69,1.93,1.93,0,0,1,.82-1.25,3,3,0,0,0,1.15-2.23c.18-5.15.76-12.21,1.72-20s2.09-14.77,3.17-19.91a2.33,2.33,0,0,0-.59-2.21A1.43,1.43,0,0,1,200.21,347.64Z" style="fill:#407BFF"></path><path d="M188.08,265h-9.83c1.19,5.31,1.76,8,2.83,13.27h9.37a2.4,2.4,0,0,0,2.58-2.75c-.5-3.11-.76-4.66-1.3-7.76A3.71,3.71,0,0,0,188.08,265Z" style="fill:#407BFF"></path><path d="M180.75,339h0a2,2,0,0,1-1.81-1.8c-3-20-7-39.88-12-59.48a1.42,1.42,0,0,1,1.53-1.8h0a2.55,2.55,0,0,1,2.41,1.8c4.72,19.61,8.43,39.5,11.19,59.48A1.43,1.43,0,0,1,180.75,339Z" style="fill:#407BFF"></path><path d="M168.12,339h0a2.18,2.18,0,0,1-1.91-1.8c-4.23-20-9.38-39.93-15.52-59.48a1.34,1.34,0,0,1,1.42-1.8h0a2.73,2.73,0,0,1,2.52,1.8c5.86,19.56,10.73,39.45,14.67,59.48C169.5,338.21,169,339,168.12,339Z" style="fill:#407BFF"></path><path d="M193.38,339h0a1.89,1.89,0,0,1-1.7-1.8,598.91,598.91,0,0,0-8.55-59.48,1.51,1.51,0,0,1,1.63-1.8h0a2.37,2.37,0,0,1,2.31,1.8,597.86,597.86,0,0,1,7.71,59.48A1.54,1.54,0,0,1,193.38,339Z" style="fill:#407BFF"></path><g style="opacity:0.30000000000000004"><path d="M180.75,339h0a2,2,0,0,1-1.81-1.8c-3-20-7-39.88-12-59.48a1.42,1.42,0,0,1,1.53-1.8h0a2.55,2.55,0,0,1,2.41,1.8c4.72,19.61,8.43,39.5,11.19,59.48A1.43,1.43,0,0,1,180.75,339Z"></path><path d="M168.12,339h0a2.18,2.18,0,0,1-1.91-1.8c-4.23-20-9.38-39.93-15.52-59.48a1.34,1.34,0,0,1,1.42-1.8h0a2.73,2.73,0,0,1,2.52,1.8c5.86,19.56,10.73,39.45,14.67,59.48C169.5,338.21,169,339,168.12,339Z"></path><path d="M193.38,339h0a1.89,1.89,0,0,1-1.7-1.8,598.91,598.91,0,0,0-8.55-59.48,1.51,1.51,0,0,1,1.63-1.8h0a2.37,2.37,0,0,1,2.31,1.8,597.86,597.86,0,0,1,7.71,59.48A1.54,1.54,0,0,1,193.38,339Z"></path></g><path d="M186.51,278.26H149.29a4.37,4.37,0,0,1-3.93-2.75c-1-3.11-1.55-4.66-2.62-7.76-.52-1.52.46-2.76,2.21-2.76h39a3.77,3.77,0,0,1,3.69,2.76c.59,3.1.87,4.65,1.42,7.76A2.37,2.37,0,0,1,186.51,278.26Z" style="fill:#407BFF"></path><path d="M186.51,278.26H149.29a4.37,4.37,0,0,1-3.93-2.75c-1-3.11-1.55-4.66-2.62-7.76-.52-1.52.46-2.76,2.21-2.76h39a3.77,3.77,0,0,1,3.69,2.76c.59,3.1.87,4.65,1.42,7.76A2.37,2.37,0,0,1,186.51,278.26Z" style="opacity:0.30000000000000004"></path></g></svg>