<svg id="visual" viewBox="0 0 900 450" width="900" height="450" xmlns="http://www.w3.org/2000/svg" xmlns:xlink="http://www.w3.org/1999/xlink" version="1.1"><rect x="0" y="0" width="900" height="450" fill="#c5d2db"></rect><defs><linearGradient id="grad1_0" x1="50%" y1="100%" x2="100%" y2="0%"><stop offset="10%" stop-color="#001220" stop-opacity="1"></stop><stop offset="90%" stop-color="#001220" stop-opacity="1"></stop></linearGradient></defs><defs><linearGradient id="grad1_1" x1="50%" y1="100%" x2="100%" y2="0%"><stop offset="10%" stop-color="#001220" stop-opacity="1"></stop><stop offset="90%" stop-color="#2d3c49" stop-opacity="1"></stop></linearGradient></defs><defs><linearGradient id="grad1_2" x1="50%" y1="100%" x2="100%" y2="0%"><stop offset="10%" stop-color="#5c6a77" stop-opacity="1"></stop><stop offset="90%" stop-color="#2d3c49" stop-opacity="1"></stop></linearGradient></defs><defs><linearGradient id="grad1_3" x1="50%" y1="100%" x2="100%" y2="0%"><stop offset="10%" stop-color="#5c6a77" stop-opacity="1"></stop><stop offset="90%" stop-color="#8f9da7" stop-opacity="1"></stop></linearGradient></defs><defs><linearGradient id="grad1_4" x1="50%" y1="100%" x2="100%" y2="0%"><stop offset="10%" stop-color="#c5d2db" stop-opacity="1"></stop><stop offset="90%" stop-color="#8f9da7" stop-opacity="1"></stop></linearGradient></defs><defs><linearGradient id="grad2_0" x1="0%" y1="100%" x2="50%" y2="0%"><stop offset="10%" stop-color="#001220" stop-opacity="1"></stop><stop offset="90%" stop-color="#001220" stop-opacity="1"></stop></linearGradient></defs><defs><linearGradient id="grad2_1" x1="0%" y1="100%" x2="50%" y2="0%"><stop offset="10%" stop-color="#2d3c49" stop-opacity="1"></stop><stop offset="90%" stop-color="#001220" stop-opacity="1"></stop></linearGradient></defs><defs><linearGradient id="grad2_2" x1="0%" y1="100%" x2="50%" y2="0%"><stop offset="10%" stop-color="#2d3c49" stop-opacity="1"></stop><stop offset="90%" stop-color="#5c6a77" stop-opacity="1"></stop></linearGradient></defs><defs><linearGradient id="grad2_3" x1="0%" y1="100%" x2="50%" y2="0%"><stop offset="10%" stop-color="#8f9da7" stop-opacity="1"></stop><stop offset="90%" stop-color="#5c6a77" stop-opacity="1"></stop></linearGradient></defs><defs><linearGradient id="grad2_4" x1="0%" y1="100%" x2="50%" y2="0%"><stop offset="10%" stop-color="#8f9da7" stop-opacity="1"></stop><stop offset="90%" stop-color="#c5d2db" stop-opacity="1"></stop></linearGradient></defs><g transform="translate(900, 450)"><path d="M-202.5 0C-199.9 -21 -197.4 -42.1 -191.2 -62.1C-185 -82.2 -175.1 -101.2 -162.6 -118.1C-150.1 -135.1 -135 -149.8 -118.1 -162.6C-101.3 -175.4 -82.6 -186.3 -62.6 -192.6C-42.6 -198.9 -21.3 -200.7 0 -202.5L0 0Z" fill="#a9b7c1"></path><path d="M-162 0C-159.9 -16.8 -157.9 -33.6 -152.9 -49.7C-148 -65.7 -140.1 -81 -130.1 -94.5C-120.1 -108 -108 -119.8 -94.5 -130.1C-81 -140.3 -66.1 -149 -50.1 -154.1C-34.1 -159.1 -17 -160.6 0 -162L0 0Z" fill="#75838f"></path><path d="M-121.5 0C-120 -12.6 -118.4 -25.2 -114.7 -37.3C-111 -49.3 -105.1 -60.7 -97.6 -70.9C-90.1 -81 -81 -89.9 -70.9 -97.6C-60.8 -105.2 -49.5 -111.8 -37.5 -115.6C-25.6 -119.3 -12.8 -120.4 0 -121.5L0 0Z" fill="#44525f"></path><path d="M-81 0C-80 -8.4 -78.9 -16.8 -76.5 -24.8C-74 -32.9 -70 -40.5 -65 -47.3C-60.1 -54 -54 -59.9 -47.3 -65C-40.5 -70.2 -33 -74.5 -25 -77C-17 -79.6 -8.5 -80.3 0 -81L0 0Z" fill="#182634"></path><path d="M-40.5 0C-40 -4.2 -39.5 -8.4 -38.2 -12.4C-37 -16.4 -35 -20.2 -32.5 -23.6C-30 -27 -27 -30 -23.6 -32.5C-20.3 -35.1 -16.5 -37.3 -12.5 -38.5C-8.5 -39.8 -4.3 -40.1 0 -40.5L0 0Z" fill="#001220"></path></g><g transform="translate(0, 0)"><path d="M202.5 0C197.6 21.1 192.7 42.1 182.6 59.3C172.5 76.5 157.2 89.9 145.6 105.8C134.1 121.7 126.4 140.2 113.4 156.1C100.5 172 82.4 185.3 62.6 192.6C42.8 199.9 21.4 201.2 0 202.5L0 0Z" fill="#a9b7c1"></path><path d="M162 0C158.1 16.9 154.2 33.7 146.1 47.5C138 61.2 125.7 71.9 116.5 84.6C107.3 97.4 101.1 112.2 90.8 124.9C80.4 137.6 65.9 148.2 50.1 154.1C34.2 159.9 17.1 161 0 162L0 0Z" fill="#75838f"></path><path d="M121.5 0C118.6 12.6 115.6 25.3 109.6 35.6C103.5 45.9 94.3 53.9 87.4 63.5C80.5 73 75.8 84.1 68.1 93.7C60.3 103.2 49.4 111.2 37.5 115.6C25.7 119.9 12.8 120.7 0 121.5L0 0Z" fill="#44525f"></path><path d="M81 0C79 8.4 77.1 16.9 73 23.7C69 30.6 62.9 35.9 58.2 42.3C53.6 48.7 50.6 56.1 45.4 62.5C40.2 68.8 32.9 74.1 25 77C17.1 80 8.6 80.5 0 81L0 0Z" fill="#182634"></path><path d="M40.5 0C39.5 4.2 38.5 8.4 36.5 11.9C34.5 15.3 31.4 18 29.1 21.2C26.8 24.3 25.3 28 22.7 31.2C20.1 34.4 16.5 37.1 12.5 38.5C8.6 40 4.3 40.2 0 40.5L0 0Z" fill="#001220"></path></g></svg>